<svg xmlns="http://www.w3.org/2000/svg" viewBox="0 0 309.34 262.51"><defs><style>.cls-1{fill:#070d04}.cls-2{fill:#edeeef}.cls-3{fill:#89ff4d}</style></defs><title>404_1</title><g id="Layer_2" data-name="Layer 2"><g id="content"><g id="illustration"><path class="cls-1" d="m57.82 80.61-1.19.69a.52.52 0 0 1-.47 0L55 80.63c-.14-.08-.16-.2 0-.27l1.19-.69a.54.54 0 0 1 .48 0l1.11.65c.14.1.16.22.04.29ZM60.58 82.21l-1.19.68a.52.52 0 0 1-.47 0l-1.12-.64c-.14-.09-.16-.21 0-.28l1.2-.7a.54.54 0 0 1 .48 0l1.11.64c.09.09.11.23-.01.3ZM57.67 83.89l-1.19.68a.52.52 0 0 1-.47 0l-1.12-.64c-.14-.09-.16-.21 0-.28L56 83a.51.51 0 0 1 .48 0l1.12.64c.18.05.19.18.07.25ZM63.34 83.8l-1.19.69a.52.52 0 0 1-.47 0l-1.12-.65c-.14-.08-.16-.2 0-.27l1.18-.69a.54.54 0 0 1 .48 0l1.12.65c.11.08.12.2 0 .27ZM60.43 85.48l-1.19.68a.49.49 0 0 1-.47 0l-1.12-.64c-.14-.08-.15-.2 0-.27l1.18-.69a.54.54 0 0 1 .48 0l1.12.65c.11.08.12.2 0 .27ZM66.26 85.49l-1.19.68a.52.52 0 0 1-.47 0l-1.12-.64c-.14-.08-.15-.21 0-.28l1.18-.68a.54.54 0 0 1 .48 0l1.12.64c.11.08.12.21 0 .28ZM63.35 87.17l-1.18.68a.54.54 0 0 1-.48 0l-1.12-.64c-.14-.09-.15-.21 0-.28l1.19-.68a.52.52 0 0 1 .47 0l1.12.64c.11.11.12.21 0 .28ZM69 87.08l-1.18.69a.54.54 0 0 1-.48 0l-1.12-.65c-.14-.08-.15-.2 0-.27l1.18-.69a.54.54 0 0 1 .48 0l1.12.65c.13.08.14.19 0 .27ZM66.11 88.76l-1.18.69a.54.54 0 0 1-.48 0l-1.12-.65c-.14-.08-.15-.2 0-.27l1.19-.69a.52.52 0 0 1 .47 0l1.12.65c.11.08.12.2 0 .27ZM71.78 88.67l-1.18.69a.54.54 0 0 1-.48 0L69 88.69c-.14-.08-.15-.2 0-.27l1.19-.68a.49.49 0 0 1 .47 0l1.12.64c.11.1.12.22 0 .29ZM68.87 90.35l-1.18.65a.54.54 0 0 1-.48 0l-1.12-.65c-.14-.08-.15-.2 0-.27l1.19-.69a.52.52 0 0 1 .47 0l1.12.65c.13.12.13.24 0 .31ZM49.37 75.65l-1.18.69a.54.54 0 0 1-.48 0l-1.11-.65c-.15-.08-.16-.2 0-.27l1.19-.69a.52.52 0 0 1 .47 0l1.12.65c.1.08.12.2-.01.27ZM52.3 77.34l-1.19.66a.49.49 0 0 1-.47 0l-1.12-.64c-.14-.08-.16-.21 0-.28l1.19-.68a.52.52 0 0 1 .47 0l1.12.64c.1.11.12.23 0 .3ZM49.39 79l-1.19.68a.52.52 0 0 1-.47 0L46.61 79c-.14-.08-.16-.21 0-.28l1.19-.68a.52.52 0 0 1 .47 0l1.12.64c.1.15.12.32 0 .32ZM55.06 78.93l-1.19.69a.52.52 0 0 1-.47 0L52.28 79c-.14-.08-.16-.2 0-.27l1.15-.73a.52.52 0 0 1 .47 0l1.12.65c.14.09.16.21.04.28ZM52.15 80.61 51 81.3a.52.52 0 0 1-.47 0l-1.12-.65c-.14-.08-.16-.2 0-.27l1.19-.69a.54.54 0 0 1 .48 0l1.11.65c.06.08.08.2-.04.27ZM54.91 82.21l-1.19.68a.52.52 0 0 1-.47 0l-1.12-.64C52 82.14 52 82 52.1 82l1.18-.68a.54.54 0 0 1 .48 0l1.11.64c.13.04.13.18.04.25ZM74.7 90.36l-1.18.69A.54.54 0 0 1 73 91l-1.12-.65c-.14-.08-.15-.2 0-.27l1.19-.69a.52.52 0 0 1 .47 0l1.12.65c.15.13.17.25.04.32ZM71.8 92l-1.19.69a.54.54 0 0 1-.48 0L69 92.06c-.14-.08-.16-.2 0-.27l1.19-.69a.52.52 0 0 1 .47 0l1.12.65c.12.1.14.25.02.25ZM77.61 88.68l-1.18.69a.54.54 0 0 1-.48 0l-1.12-.65c-.14-.08-.15-.2 0-.27l1.17-.71a.52.52 0 0 1 .47 0l1.12.65c.13.1.14.22.02.29ZM80.52 87l-1.18.69a.54.54 0 0 1-.48 0L77.74 87c-.14-.08-.15-.2 0-.27l1.18-.69a.54.54 0 0 1 .48 0l1.12.65c.11.12.12.24 0 .31ZM83.43 85.32l-1.19.68a.52.52 0 0 1-.47 0l-1.12-.65c-.14-.08-.15-.2 0-.27l1.18-.69a.54.54 0 0 1 .48 0l1.12.65c.11.09.12.21 0 .28ZM86.34 83.64l-1.19.69a.52.52 0 0 1-.47 0l-1.12-.65c-.14-.08-.16-.2 0-.27l1.18-.69a.54.54 0 0 1 .48 0l1.11.65c.12.08.13.2.01.27ZM89.25 82l-1.19.69a.52.52 0 0 1-.47 0L86.47 82c-.14-.08-.16-.2 0-.27l1.15-.73a.51.51 0 0 1 .48 0l1.11.64c.14.13.16.25.04.36ZM92.16 80.29 91 81a.52.52 0 0 1-.47 0l-1.12-.64c-.14-.09-.16-.21 0-.28l1.19-.68a.49.49 0 0 1 .47 0l1.12.64c.07.05.09.18-.03.25ZM95.07 78.61l-1.19.68a.54.54 0 0 1-.48 0l-1.11-.64c-.14-.09-.16-.21 0-.28l1.19-.68a.52.52 0 0 1 .47 0l1.12.64c.1.08.12.21 0 .28ZM98 76.93l-1.18.68a.54.54 0 0 1-.48 0L95.19 77c-.14-.08-.15-.21 0-.28l1.16-.72a.52.52 0 0 1 .47 0l1.12.64c.14.09.16.22.06.29ZM100.88 75.25l-1.18.68a.54.54 0 0 1-.48 0l-1.12-.64c-.14-.08-.15-.21 0-.28l1.19-.68a.52.52 0 0 1 .47 0l1.12.64c.12.08.12.21 0 .28ZM77.46 92l-1.18.68a.54.54 0 0 1-.48 0L74.69 92c-.14-.09-.16-.21 0-.28l1.15-.72a.49.49 0 0 1 .47 0l1.12.64c.14.12.16.25.03.36ZM80.37 90.28l-1.18.72a.54.54 0 0 1-.48 0l-1.12-.64c-.14-.09-.15-.21 0-.28l1.19-.68a.52.52 0 0 1 .47 0l1.12.64c.11.04.13.17 0 .24ZM83.28 88.6l-1.18.68a.54.54 0 0 1-.48 0l-1.12-.64c-.14-.08-.15-.21 0-.28l1.19-.68a.52.52 0 0 1 .47 0l1.12.64c.11.08.12.21 0 .28ZM86.19 86.92 85 87.6a.52.52 0 0 1-.47 0l-1.12-.64c-.14-.08-.15-.21 0-.28l1.15-.68a.54.54 0 0 1 .44 0l1.12.64c.18.08.19.21.07.28ZM89.1 85.24l-1.19.68a.52.52 0 0 1-.47 0l-1.12-.64c-.14-.08-.16-.21 0-.28l1.18-.68a.54.54 0 0 1 .48 0l1.12.64c.11.09.12.21 0 .28ZM92 83.56l-1.19.68a.49.49 0 0 1-.47 0l-1.12-.64c-.14-.08-.16-.21 0-.28l1.18-.68a.54.54 0 0 1 .48 0l1.11.64c.12.09.14.21.01.28ZM94.92 81.88l-1.19.68a.49.49 0 0 1-.47 0l-1.12-.64c-.14-.08-.16-.2 0-.27l1.19-.69a.52.52 0 0 1 .47 0l1.12.65c.08.08.08.2 0 .27ZM97.83 80.2l-1.19.69a.52.52 0 0 1-.47 0l-1.12-.65c-.14-.08-.16-.2 0-.27l1.19-.69a.52.52 0 0 1 .47 0l1.12.65c.1.07.17.2 0 .27ZM100.73 78.52l-1.18.69a.54.54 0 0 1-.48 0L98 78.54c-.14-.08-.16-.2 0-.27l1.19-.69a.52.52 0 0 1 .47 0l1.12.65c.06.1.08.22-.05.29ZM97.17 69.83h-1.39l-20.86-12a4.71 4.71 0 0 0-4.22-.18l-21 12.13-1.56.08a.11.11 0 0 0-.11.11v1.35a1.66 1.66 0 0 0 1 1.44l21.32 12.31a4.67 4.67 0 0 0 4.22.17l22-12.69a1.25 1.25 0 0 0 .71-1v-1Z"/><path class="cls-1" d="M72.73 86.28A5.49 5.49 0 0 1 70 85.6L48.66 73.26a2.44 2.44 0 0 1-1.31-1.65v-1.69a.74.74 0 0 1 .69-.73l1.44-.07 20.86-12.06a5.32 5.32 0 0 1 4.84.17l20.74 12h1.78l.19 1.32v1a1.88 1.88 0 0 1-1 1.5l-22 12.7a4.39 4.39 0 0 1-2.16.53ZM48.56 71v.36c0 .27.25.6.71.87l21.39 12.3a4.1 4.1 0 0 0 3.6.18l22-12.7a.72.72 0 0 0 .41-.49v-1.13h-1l-.19-.09-20.87-12a4.07 4.07 0 0 0-3.6-.17L49.84 70.32h-.2l-1.08.05Z"/><path class="cls-2" d="m96.55 71-22 12.69a4.68 4.68 0 0 1-4.22-.18L49 71.13c-1.25-.72-1.39-1.81-.31-2.43l22-12.7a4.71 4.71 0 0 1 4.22.18l21.34 12.34c1.25.72 1.38 1.81.3 2.48Z"/><path class="cls-1" d="M72.73 84.69A5.49 5.49 0 0 1 70 84L48.66 71.67a2.34 2.34 0 0 1-1.34-1.92 1.85 1.85 0 0 1 1-1.59l22-12.69a5.29 5.29 0 0 1 4.84.17L96.56 68a2.33 2.33 0 0 1 1.34 1.9 1.84 1.84 0 0 1-1 1.59l-22 12.69a4.32 4.32 0 0 1-2.17.51Zm-.25-28.49a3.1 3.1 0 0 0-1.52.34L49 69.23c-.15.09-.42.28-.42.52s.19.54.73.85l21.35 12.34a4.06 4.06 0 0 0 3.6.17l22-12.69c.16-.09.42-.28.42-.52s-.19-.54-.72-.84l-21.4-12.35a4.3 4.3 0 0 0-2.08-.51Z"/><path class="cls-3" d="M72.13 84.23h.95v1.42h-.95zM49.36 71.83h.95v1.42h-.95zM52.39 73.45h.95v1.42h-.95zM94.95 71.69h.95v1.42h-.95zM87.86 66.14l-.07-.27L78.53 31H66.72l-9.34 35.14v.14c-.86 2.89.59 5.85 4.32 8.09 6 3.63 15.86 3.63 21.91 0 3.69-2.24 5.12-5.37 4.25-8.23Z"/><path class="cls-1" d="M72.62 77.7a22.3 22.3 0 0 1-11.27-2.8c-3.89-2.34-5.57-5.55-4.59-8.8V66l9.46-35.6H79L88.46 66c1 3.29-.73 6.62-4.57 8.92a22.25 22.25 0 0 1-11.27 2.78Zm-5.43-46.06L58 66.41c-.82 2.71.66 5.41 4 7.43 5.87 3.52 15.41 3.52 21.27 0 3.32-2 4.82-4.81 4-7.52l-.08-.32-9.13-34.36Z"/><path class="cls-2" d="M76.8 28.51c2.31 1.39 2.31 3.63 0 5a8.94 8.94 0 0 1-8.35 0c-2.31-1.39-2.31-3.63 0-5a8.94 8.94 0 0 1 8.35 0Z"/><path class="cls-1" d="M72.62 35.19a8.84 8.84 0 0 1-4.49-1.13 3.65 3.65 0 0 1-2-3 3.65 3.65 0 0 1 2-3 9.49 9.49 0 0 1 9 0 3.65 3.65 0 0 1 2 3 3.65 3.65 0 0 1-2 3 8.85 8.85 0 0 1-4.51 1.13Zm0-7.1a7.61 7.61 0 0 0-3.85.95 2.49 2.49 0 0 0-1.44 2 2.47 2.47 0 0 0 1.44 2 8.22 8.22 0 0 0 7.71 0 2.46 2.46 0 0 0 1.43-2 2.47 2.47 0 0 0-1.43-2 7.62 7.62 0 0 0-3.86-.95Z"/><path class="cls-3" d="M75.25 29.72a7.09 7.09 0 0 0-5.28 0c-1.46.68-1.46 1.79 0 2.47a7.09 7.09 0 0 0 5.28 0c1.46-.68 1.46-1.79 0-2.47Z"/><path class="cls-1" d="M72.61 33.32a7 7 0 0 1-2.9-.57c-1.27-.59-1.46-1.38-1.46-1.79s.19-1.21 1.46-1.8a7.71 7.71 0 0 1 5.8 0C76.77 29.75 77 30.54 77 31s-.19 1.2-1.45 1.79a7 7 0 0 1-2.94.53Zm0-3.49a5.84 5.84 0 0 0-2.38.45c-.51.24-.74.51-.74.68s.23.43.74.67a6.52 6.52 0 0 0 4.76 0c.51-.24.74-.51.74-.67s-.23-.44-.74-.68a5.88 5.88 0 0 0-2.38-.45Z"/><path class="cls-2" d="m82.76 46.94-2-7.4c.33 1.47-.45 3-2.33 4.15a12.44 12.44 0 0 1-11.65 0c-1.88-1.13-2.66-2.68-2.33-4.15l-1.38 5.24-.64 2.44c-.55 1.93.41 4 2.88 5.46a15.65 15.65 0 0 0 14.66 0c2.6-1.56 3.49-3.68 2.79-5.74Z"/><path class="cls-1" d="M72.65 55.11a15.23 15.23 0 0 1-7.65-1.9c-2.62-1.58-3.8-3.88-3.15-6.16L64 38.92h1.24l-.16.75c-.28 1.27.47 2.54 2.05 3.49a11.78 11.78 0 0 0 11 0c1.58-.95 2.33-2.22 2.05-3.49l-.18-.75h1.24l.13.46 2 7.38c.81 2.4-.33 4.81-3 6.45a15.23 15.23 0 0 1-7.72 1.9Zm-8.26-12.87L63 47.38c-.5 1.75.45 3.48 2.6 4.77a15 15 0 0 0 14 0c2.23-1.34 3.15-3.17 2.52-5l-1.29-4.87a6.12 6.12 0 0 1-2.1 2 13.16 13.16 0 0 1-12.29 0 6.25 6.25 0 0 1-2.05-2.04Z"/><path class="cls-2" d="m86.88 62.49-.11-.39v-.05l-1.83-6.77c.43 2.19-.75 4.48-3.55 6.16-4.85 2.91-12.72 2.91-17.57 0-2.8-1.68-4-4-3.54-6.16l-1.89 7.21c-.61 2.6.73 5.33 4.06 7.33 5.62 3.38 14.74 3.38 20.36 0 3.34-2 4.68-4.73 4.07-7.33Z"/><path class="cls-1" d="M72.64 73a20.79 20.79 0 0 1-10.5-2.61c-3.12-1.87-4.75-4.53-4.47-7.24h-.07l.18-.77 2-7.67H61l-.14.73c-.39 2 .79 4 3.26 5.51 4.67 2.8 12.26 2.8 16.93 0 2.47-1.48 3.66-3.49 3.26-5.51l-.15-.73h1.23l.13.45 2.17 8h-.1c.28 2.71-1.35 5.37-4.47 7.24A20.79 20.79 0 0 1 72.64 73ZM59.07 62.31l-.07.33c-.58 2.44.8 4.87 3.77 6.65 5.44 3.27 14.3 3.27 19.74 0 3-1.78 4.35-4.21 3.77-6.65l-.09-.37-1-3.86A8.44 8.44 0 0 1 81.71 62c-5 3-13.19 3-18.21 0a8.45 8.45 0 0 1-3.42-3.53Z"/><path class="cls-2" transform="rotate(-77.6 65.38 51.072)" d="M50.96 50.45h28.85v1.24H50.96z"/><path class="cls-3" transform="rotate(-77.63 66.435 46.308)" d="M65.1 45.69h2.66v1.24H65.1z"/><path class="cls-3" transform="rotate(-77.63 62.609 63.726)" d="M61.14 63.1h2.94v1.24h-2.94z"/><path class="cls-1" d="M70.05 29.74c-1.38.64-1.38 1.68 0 2.32a5.18 5.18 0 0 0 1 .33l.37-3.05a5.32 5.32 0 0 0-1.37.4Z"/><path class="cls-1" d="M71.62 33.13 71 33a5.37 5.37 0 0 1-1.17-.37c-1.21-.56-1.39-1.32-1.39-1.72s.18-1.16 1.39-1.72a5.84 5.84 0 0 1 1.57-.44l.81-.12Zm-1.31-2.84c-.53.25-.68.5-.68.61s.15.35.68.6l.25.1.18-1.47-.43.16Z"/><path class="cls-1" transform="rotate(-12.7 77.87 41.77)" d="M77.74 36.86h1.23v10.28h-1.23z"/><path class="cls-1" d="m222.58 126.69-1.19.68a.52.52 0 0 1-.47 0l-1.12-.64c-.14-.08-.16-.21 0-.28l1.18-.68a.54.54 0 0 1 .48 0l1.12.64c.11.08.12.21 0 .28ZM225.34 128.28l-1.19.69a.52.52 0 0 1-.47 0l-1.12-.65c-.14-.08-.16-.2 0-.27l1.18-.69a.54.54 0 0 1 .48 0l1.12.65c.11.08.12.2 0 .27ZM222.43 130l-1.19.69a.52.52 0 0 1-.47 0l-1.12-.65c-.14-.08-.15-.2 0-.27l1.18-.69a.54.54 0 0 1 .48 0l1.12.65c.11.04.12.16 0 .27ZM228.1 129.88l-1.19.68a.52.52 0 0 1-.47 0l-1.12-.65c-.14-.08-.15-.2 0-.27l1.18-.68a.51.51 0 0 1 .48 0l1.12.64c.11.08.12.2 0 .28ZM225.19 131.55l-1.18.69a.54.54 0 0 1-.48 0l-1.12-.65c-.14-.08-.15-.2 0-.27l1.19-.68a.49.49 0 0 1 .47 0l1.12.65c.11.07.12.19 0 .26ZM231 131.56l-1.18.69a.54.54 0 0 1-.48 0l-1.12-.65c-.14-.08-.15-.2 0-.27l1.19-.69a.52.52 0 0 1 .47 0l1.12.65c.13.08.14.2 0 .27ZM228.11 133.24l-1.18.69a.54.54 0 0 1-.48 0l-1.12-.65c-.14-.08-.15-.2 0-.27l1.19-.69a.52.52 0 0 1 .47 0l1.12.65c.11.08.13.2 0 .27ZM233.78 133.16l-1.18.68a.54.54 0 0 1-.48 0l-1.12-.64c-.14-.09-.15-.21 0-.28l1.19-.68a.52.52 0 0 1 .47 0l1.12.64c.11.12.12.21 0 .28ZM230.87 134.84l-1.18.68a.54.54 0 0 1-.48 0l-1.11-.65c-.15-.08-.16-.2 0-.27l1.19-.68a.49.49 0 0 1 .47 0l1.12.64c.12.08.12.2-.01.28ZM236.54 134.75l-1.18.68a.51.51 0 0 1-.48 0l-1.12-.65c-.14-.08-.15-.2 0-.27l1.19-.69a.52.52 0 0 1 .47 0l1.12.65c.11.09.13.21 0 .28ZM233.64 136.43l-1.19.68a.51.51 0 0 1-.48 0l-1.11-.64c-.14-.08-.16-.2 0-.28l1.19-.68a.52.52 0 0 1 .47 0l1.12.65c.1.08.12.2 0 .27ZM214.14 121.73l-1.19.68a.54.54 0 0 1-.48 0l-1.11-.64c-.14-.08-.16-.21 0-.28l1.19-.68a.52.52 0 0 1 .47 0l1.12.64c.1.08.12.21 0 .28ZM217.06 123.41l-1.19.69a.52.52 0 0 1-.47 0l-1.12-.65c-.14-.08-.16-.2 0-.27l1.19-.69a.54.54 0 0 1 .48 0l1.11.65c.1.08.12.2 0 .27ZM214.15 125.09l-1.19.69a.52.52 0 0 1-.47 0l-1.12-.65c-.14-.08-.16-.2 0-.27l1.18-.69a.54.54 0 0 1 .48 0l1.11.65c.12.08.13.18.01.27ZM219.82 125l-1.19.68a.52.52 0 0 1-.47 0L217 125c-.14-.08-.16-.21 0-.28l1.19-.68a.54.54 0 0 1 .48 0l1.11.64c.14.13.16.26.04.32ZM216.91 126.69l-1.19.68a.52.52 0 0 1-.47 0l-1.12-.64c-.14-.08-.16-.21 0-.28l1.18-.68a.54.54 0 0 1 .48 0l1.12.64c.09.08.09.21 0 .28ZM219.67 128.28l-1.19.69a.52.52 0 0 1-.47 0l-1.12-.65c-.14-.08-.15-.2 0-.27l1.18-.69a.54.54 0 0 1 .48 0l1.12.65c.11.08.12.2 0 .27ZM239.47 136.44l-1.19.68a.54.54 0 0 1-.48 0l-1.11-.64c-.14-.08-.16-.21 0-.28l1.19-.68a.52.52 0 0 1 .47 0l1.12.64c.1.08.12.21 0 .28ZM236.56 138.12l-1.19.68a.52.52 0 0 1-.47 0l-1.12-.64c-.14-.09-.16-.21 0-.28l1.19-.68a.52.52 0 0 1 .47 0l1.12.64c.1.08.12.21 0 .28ZM242.37 134.76l-1.18.68a.54.54 0 0 1-.48 0l-1.12-.64c-.14-.08-.15-.21 0-.28l1.19-.68a.52.52 0 0 1 .47 0l1.12.64c.11.08.13.21 0 .28ZM245.28 133.08l-1.18.68a.54.54 0 0 1-.48 0l-1.12-.64c-.14-.08-.15-.21 0-.28l1.19-.68a.52.52 0 0 1 .47 0l1.12.64c.11.08.12.2 0 .28ZM248.19 131.4l-1.18.68a.54.54 0 0 1-.48 0l-1.12-.64c-.14-.08-.15-.21 0-.28l1.18-.68a.54.54 0 0 1 .48 0l1.12.64c.11.09.12.21 0 .28ZM251.1 129.72l-1.19.68a.49.49 0 0 1-.47 0l-1.12-.64c-.14-.08-.15-.2 0-.28l1.18-.68a.54.54 0 0 1 .48 0l1.12.65c.11.08.12.2 0 .27ZM254 128l-1.19.68a.52.52 0 0 1-.47 0l-1.12-.65c-.14-.08-.16-.2 0-.27l1.18-.69a.54.54 0 0 1 .48 0l1.12.65c.12.13.13.28 0 .28ZM256.92 126.36l-1.19.69a.52.52 0 0 1-.47 0l-1.12-.65c-.14-.08-.16-.2 0-.27l1.19-.69a.54.54 0 0 1 .48 0l1.11.65c.08.08.08.2 0 .27ZM259.83 124.68l-1.19.69a.52.52 0 0 1-.47 0l-1.12-.65c-.14-.08-.16-.2 0-.27l1.19-.69a.52.52 0 0 1 .47 0l1.12.65c.1.08.17.2 0 .27ZM262.74 123l-1.19.69a.54.54 0 0 1-.48 0L260 123c-.14-.08-.16-.2 0-.27l1.19-.69a.52.52 0 0 1 .47 0l1.12.65c.06.12.08.24-.04.31ZM265.64 121.32l-1.18.69a.54.54 0 0 1-.48 0l-1.12-.65c-.14-.08-.15-.2 0-.27l1.19-.69a.52.52 0 0 1 .47 0l1.12.65c.11.08.13.2 0 .27ZM242.23 138l-1.19.69a.52.52 0 0 1-.47 0l-1.12-.65c-.14-.08-.16-.2 0-.27l1.19-.69a.52.52 0 0 1 .47 0l1.12.65c.1.11.12.27 0 .27ZM245.14 136.35 244 137a.54.54 0 0 1-.48 0l-1.11-.65c-.14-.08-.16-.2 0-.27l1.19-.69a.52.52 0 0 1 .47 0l1.12.65c.05.12.07.24-.05.31ZM248 134.67l-1.18.69a.54.54 0 0 1-.48 0l-1.12-.65c-.14-.08-.15-.2 0-.27l1.19-.69a.52.52 0 0 1 .47 0l1.12.65c.15.08.17.2 0 .27ZM251 133l-1.18.69a.54.54 0 0 1-.48 0l-1.12-.65c-.14-.08-.15-.2 0-.27l1.19-.69a.52.52 0 0 1 .47 0l1.12.65c.06.07.07.19 0 .27ZM253.86 131.31l-1.19.69a.52.52 0 0 1-.47 0l-1.12-.65c-.14-.08-.15-.2 0-.27l1.18-.69a.54.54 0 0 1 .48 0l1.12.65c.14.08.14.2 0 .27ZM256.77 129.63l-1.19.69a.52.52 0 0 1-.47 0l-1.12-.65c-.14-.08-.15-.2 0-.27l1.18-.69a.54.54 0 0 1 .48 0l1.12.65c.11.08.12.2 0 .27ZM259.68 128l-1.19.69a.52.52 0 0 1-.47 0l-1.12-.69c-.14-.08-.16-.2 0-.27l1.18-.68a.51.51 0 0 1 .48 0l1.11.65c.12.06.13.18.01.3ZM262.59 126.27l-1.19.69a.52.52 0 0 1-.47 0l-1.12-.65c-.14-.08-.16-.2 0-.27l1.19-.68a.51.51 0 0 1 .48 0l1.11.64c.1.08.12.2 0 .27ZM265.5 124.6l-1.19.68a.52.52 0 0 1-.47 0l-1.12-.64c-.14-.09-.16-.21 0-.28l1.19-.68a.49.49 0 0 1 .47 0l1.12.64c.1.08.12.21 0 .28ZM263.45 115.81H262l-20.86-12a4.71 4.71 0 0 0-4.22-.18l-21 12.12h-.05l-1.56.08a.11.11 0 0 0-.11.11v1.35a1.66 1.66 0 0 0 1 1.44l21.38 12.34a4.68 4.68 0 0 0 4.22.18l22-12.69a1.26 1.26 0 0 0 .71-1v-1Z"/><path class="cls-1" d="M239 132.27a5.51 5.51 0 0 1-2.69-.68l-21.38-12.34a2.47 2.47 0 0 1-1.31-1.66v-1.67a.73.73 0 0 1 .69-.73l1.44-.07 20.89-12.06a5.29 5.29 0 0 1 4.84.17l20.74 12H264l.18 1.32v1a1.88 1.88 0 0 1-1 1.5l-22 12.7a4.46 4.46 0 0 1-2.18.52Zm-24.17-15.33v.35c0 .27.25.6.71.87l21.38 12.34a4.06 4.06 0 0 0 3.6.17l22-12.69a.72.72 0 0 0 .41-.49v-1.12h-1l-.19-.09-20.87-12a4.07 4.07 0 0 0-3.6-.17l-21.12 12.19h-1.28Z"/><path class="cls-2" d="m262.83 116.94-22 12.7a4.71 4.71 0 0 1-4.22-.18l-21.38-12.34c-1.25-.72-1.39-1.81-.3-2.44l22-12.69a4.71 4.71 0 0 1 4.22.18l21.38 12.34c1.25.72 1.38 1.81.3 2.43Z"/><path class="cls-1" d="M239 130.68a5.51 5.51 0 0 1-2.69-.68l-21.38-12.35a2.32 2.32 0 0 1-1.34-1.91 1.85 1.85 0 0 1 1-1.59l22-12.69a5.29 5.29 0 0 1 4.84.17L262.84 114a2.34 2.34 0 0 1 1.34 1.92 1.85 1.85 0 0 1-1 1.59l-22 12.69a4.35 4.35 0 0 1-2.18.48Zm-.25-28.49a3.1 3.1 0 0 0-1.52.34l-22 12.69c-.16.09-.43.28-.43.52s.19.54.73.84l21.38 12.35a4.06 4.06 0 0 0 3.6.17l22-12.69c.16-.09.42-.28.42-.52s-.19-.54-.72-.85l-21.37-12.34a4.3 4.3 0 0 0-2.08-.51Z"/><path class="cls-3" d="M238.41 130.22h.95v1.42h-.95zM215.64 117.82h.95v1.42h-.95zM218.68 119.44h.95v1.42h-.95zM261.23 117.68h.95v1.42h-.95zM254.14 112.13l-.07-.27L244.81 77H233l-9.33 35.12v.13c-.86 2.9.59 5.86 4.32 8.1 6.05 3.63 15.86 3.63 21.91 0 3.69-2.23 5.1-5.35 4.24-8.22Z"/><path class="cls-1" d="M238.9 123.69a22.3 22.3 0 0 1-11.27-2.8c-3.89-2.34-5.56-5.55-4.59-8.8v-.1l9.46-35.6h12.77l9.47 35.61c1 3.28-.73 6.62-4.56 8.92a22.32 22.32 0 0 1-11.28 2.77Zm-5.43-46.06-9.23 34.77c-.81 2.71.66 5.41 4 7.43 5.86 3.52 15.41 3.52 21.27 0 3.32-2 4.82-4.81 4-7.52l-.08-.31-9.13-34.37Z"/><path class="cls-2" d="M243.08 74.5c2.31 1.39 2.31 3.63 0 5a8.94 8.94 0 0 1-8.35 0c-2.31-1.39-2.31-3.63 0-5a8.94 8.94 0 0 1 8.35 0Z"/><path class="cls-1" d="M238.91 81.18a9 9 0 0 1-4.5-1.13 3.29 3.29 0 0 1 0-6.08 9.49 9.49 0 0 1 9 0 3.29 3.29 0 0 1 0 6.08 8.94 8.94 0 0 1-4.5 1.13Zm0-7.11a7.61 7.61 0 0 0-3.85 1 2.09 2.09 0 0 0 0 4 8.22 8.22 0 0 0 7.71 0 2.08 2.08 0 0 0 0-4 7.62 7.62 0 0 0-3.87-1Z"/><path class="cls-3" d="M241.53 75.71a7.09 7.09 0 0 0-5.28 0c-1.46.68-1.46 1.79 0 2.47a7.09 7.09 0 0 0 5.28 0c1.47-.68 1.47-1.79 0-2.47Z"/><path class="cls-1" d="M238.89 79.3a7 7 0 0 1-2.9-.57c-1.27-.58-1.45-1.37-1.45-1.79s.18-1.2 1.45-1.79a7.66 7.66 0 0 1 5.8 0c1.26.59 1.45 1.38 1.45 1.79s-.19 1.21-1.45 1.79a7 7 0 0 1-2.9.57Zm0-3.48a5.84 5.84 0 0 0-2.38.45c-.51.24-.74.51-.74.67s.23.44.74.68a6.52 6.52 0 0 0 4.76 0c.51-.24.74-.51.74-.68s-.23-.43-.74-.67a5.88 5.88 0 0 0-2.38-.45Z"/><path class="cls-2" d="m249 92.92-2-7.39c.33 1.47-.45 3-2.33 4.15a12.44 12.44 0 0 1-11.65 0c-1.88-1.14-2.66-2.68-2.33-4.15l-1.38 5.24-.64 2.44c-.55 1.92.41 4 2.88 5.46a15.65 15.65 0 0 0 14.66 0c2.65-1.56 3.53-3.67 2.79-5.75Z"/><path class="cls-1" d="M238.93 101.1a15.23 15.23 0 0 1-7.65-1.9c-2.62-1.58-3.8-3.88-3.15-6.16l2.14-8.13h1.24l-.16.75c-.28 1.27.47 2.54 2.05 3.49a11.78 11.78 0 0 0 11 0c1.58-1 2.33-2.22 2.05-3.49l-.17-.75h1.25l.13.46 2 7.38c.81 2.4-.33 4.81-3 6.45a15.23 15.23 0 0 1-7.73 1.9Zm-8.26-12.87-1.35 5.14c-.5 1.74.45 3.48 2.6 4.77a15 15 0 0 0 14 0c2.23-1.34 3.15-3.17 2.52-5l-1.3-4.86a6.12 6.12 0 0 1-2.1 2 13.16 13.16 0 0 1-12.29 0 6.25 6.25 0 0 1-2.08-2.05Z"/><path class="cls-2" d="m253.17 108.48-.11-.39v-.06l-1.83-6.76c.43 2.19-.75 4.47-3.55 6.15-4.85 2.92-12.72 2.92-17.57 0-2.8-1.68-4-4-3.54-6.15l-1.89 7.21c-.61 2.6.73 5.33 4.06 7.33 5.62 3.38 14.74 3.38 20.37 0 3.32-2 4.67-4.73 4.06-7.33Z"/><path class="cls-1" d="M238.92 119a20.81 20.81 0 0 1-10.5-2.61c-3.12-1.88-4.75-4.54-4.47-7.24h-.07l.18-.77 2-7.68h1.23l-.13.74c-.4 2 .79 4 3.25 5.5 4.67 2.81 12.27 2.81 16.93 0 2.47-1.48 3.66-3.48 3.26-5.5l-.14-.74h1.22l.13.46 2.16 8h-.09c.28 2.7-1.34 5.36-4.47 7.24a20.79 20.79 0 0 1-10.49 2.6Zm-13.57-10.7-.07.32c-.57 2.45.8 4.87 3.78 6.66 5.44 3.27 14.29 3.27 19.73 0 3-1.79 4.35-4.21 3.77-6.66l-.09-.37-1-3.86A8.33 8.33 0 0 1 248 108c-5 3-13.19 3-18.21 0a8.43 8.43 0 0 1-3.42-3.52Z"/><path class="cls-2" transform="rotate(-77.6 231.653 97.064)" d="M217.24 96.44h28.85v1.24h-28.85z"/><path class="cls-3" transform="rotate(-77.63 232.718 92.297)" d="M231.38 91.68h2.66v1.24h-2.66z"/><path class="cls-3" transform="rotate(-77.63 228.897 109.709)" d="M227.42 109.09h2.94v1.24h-2.94z"/><path class="cls-1" d="M236.33 75.72c-1.38.65-1.38 1.69 0 2.33a5.07 5.07 0 0 0 1 .33l.37-3a5.29 5.29 0 0 0-1.37.34Z"/><path class="cls-1" d="m237.9 79.12-.66-.14a5.37 5.37 0 0 1-1.17-.37c-1.21-.57-1.39-1.32-1.39-1.72s.18-1.16 1.39-1.73a6 6 0 0 1 1.57-.44l.81-.12Zm-.88-3a3.54 3.54 0 0 0-.43.16c-.53.25-.67.5-.67.61s.14.35.67.6l.25.1Z"/><path class="cls-1" transform="rotate(-8.04 242.488 83.892)" d="M241.78 82.27h1.24v3.28h-1.24z"/><path class="cls-1" d="m90.34 138.28-1.18.69a.54.54 0 0 1-.48 0l-1.12-.65c-.14-.08-.15-.2 0-.27l1.19-.69a.52.52 0 0 1 .47 0l1.12.65c.11.08.13.2 0 .27ZM93.1 139.87l-1.18.69a.54.54 0 0 1-.48 0l-1.11-.65c-.15-.08-.16-.2 0-.27l1.19-.69a.52.52 0 0 1 .47 0l1.12.65c.1.08.12.2-.01.27ZM90.2 141.55l-1.19.69a.54.54 0 0 1-.48 0l-1.11-.65c-.14-.08-.16-.2 0-.27l1.19-.69a.52.52 0 0 1 .47 0l1.12.65c.1.08.12.2 0 .27ZM95.87 141.47l-1.19.68a.54.54 0 0 1-.48 0l-1.11-.64c-.14-.08-.16-.21 0-.28l1.19-.68a.52.52 0 0 1 .47 0l1.12.64c.13.09.13.21 0 .28ZM93 143.15l-1.19.68a.52.52 0 0 1-.47 0l-1.12-.64c-.14-.08-.16-.21 0-.28l1.19-.68a.52.52 0 0 1 .47 0l1.12.64c.06.13.08.21 0 .28ZM98.79 143.15l-1.19.69a.52.52 0 0 1-.47 0l-1.13-.67c-.14-.08-.16-.2 0-.27l1.19-.68a.49.49 0 0 1 .47 0l1.12.64c.11.14.13.22.01.29ZM95.88 144.83l-1.19.69a.52.52 0 0 1-.47 0l-1.12-.65c-.14-.08-.16-.2 0-.27l1.18-.69a.54.54 0 0 1 .48 0l1.11.65c.13.08.13.2.01.27ZM101.55 144.75l-1.19.68a.49.49 0 0 1-.47 0l-1.12-.64c-.14-.08-.16-.21 0-.28l1.19-.68a.54.54 0 0 1 .48 0l1.11.64c.1.09.12.21 0 .28ZM98.64 146.43l-1.19.68a.52.52 0 0 1-.47 0l-1.12-.64c-.14-.08-.16-.21 0-.28l1.18-.68a.54.54 0 0 1 .48 0l1.12.64c.11.09.12.21 0 .28ZM104.31 146.34l-1.19.69a.52.52 0 0 1-.47 0l-1.12-.65c-.14-.08-.16-.2 0-.27l1.18-.69a.54.54 0 0 1 .48 0l1.11.65c.12.08.13.2.01.27ZM101.4 148l-1.19.69a.52.52 0 0 1-.47 0l-1.12-.69c-.14-.08-.15-.2 0-.27l1.18-.69a.54.54 0 0 1 .48 0l1.12.65c.11.14.12.31 0 .31ZM107.23 148l-1.19.68a.49.49 0 0 1-.47 0l-1.12-.64c-.14-.08-.15-.2 0-.27l1.18-.69a.54.54 0 0 1 .48 0l1.12.65c.11.11.12.27 0 .27ZM104.32 149.71l-1.18.68a.51.51 0 0 1-.48 0l-1.12-.64c-.14-.08-.15-.21 0-.28l1.18-.68a.54.54 0 0 1 .48 0l1.12.64c.11.09.12.21 0 .28ZM77.43 113.53l-1.18.68a.54.54 0 0 1-.48 0l-1.12-.64c-.14-.08-.15-.21 0-.28l1.19-.68a.52.52 0 0 1 .47 0l1.12.64c.11.08.13.21 0 .28ZM80.19 115.12l-1.18.69a.54.54 0 0 1-.48 0l-1.11-.65c-.15-.08-.16-.2 0-.27l1.19-.69a.52.52 0 0 1 .47 0l1.12.65c.1.08.12.2-.01.27ZM77.29 116.8l-1.19.69a.54.54 0 0 1-.48 0l-1.11-.65c-.14-.08-.16-.2 0-.27l1.19-.69a.52.52 0 0 1 .47 0l1.12.65c.1.08.12.2 0 .27ZM83.12 116.81l-1.19.68a.52.52 0 0 1-.47 0l-1.12-.64c-.14-.08-.16-.21 0-.28l1.19-.68a.52.52 0 0 1 .47 0l1.12.64c.1.08.12.21 0 .28ZM80.21 118.49l-1.19.68a.52.52 0 0 1-.47 0l-1.12-.64c-.14-.08-.16-.21 0-.28l1.19-.68a.54.54 0 0 1 .48 0l1.11.64c.1.08.12.21 0 .28ZM85.88 118.4l-1.19.69a.52.52 0 0 1-.47 0l-1.12-.65c-.14-.08-.16-.2 0-.27l1.19-.69a.52.52 0 0 1 .47 0l1.12.65c.12.08.12.2 0 .27ZM83 120.08l-1.19.69a.52.52 0 0 1-.47 0l-1.12-.65c-.14-.08-.16-.2 0-.27l1.19-.69a.54.54 0 0 1 .48 0l1.11.65c.07.08.09.19 0 .27ZM88.64 120l-1.19.68a.52.52 0 0 1-.47 0l-1.12-.68c-.14-.09-.16-.21 0-.28l1.19-.68a.51.51 0 0 1 .48 0l1.11.64c.1.12.12.25 0 .32ZM85.73 121.67l-1.19.69a.52.52 0 0 1-.47 0l-1.07-.67c-.14-.08-.16-.2 0-.27l1.18-.68a.51.51 0 0 1 .48 0l1.11.64c.07.1.08.22-.04.29ZM88.65 123.36l-1.19.69a.52.52 0 0 1-.47 0l-1.12-.65c-.14-.08-.15-.2 0-.27l1.18-.69a.54.54 0 0 1 .48 0l1.12.65c.11.08.12.2 0 .27ZM194.27 180.71l-1.19.69a.52.52 0 0 1-.47 0l-1.12-.65c-.14-.08-.16-.2 0-.27l1.18-.69a.54.54 0 0 1 .48 0l1.12.65c.11.08.12.2 0 .27ZM197 182.31l-1.19.68a.52.52 0 0 1-.47 0l-1.12-.64c-.14-.08-.15-.21 0-.28l1.18-.68a.54.54 0 0 1 .48 0l1.12.61c.14.12.15.24 0 .31ZM200 184l-1.18.69a.54.54 0 0 1-.48 0l-1.12-.65c-.14-.08-.15-.2 0-.27l1.19-.68a.49.49 0 0 1 .47 0l1.12.64c.06.07.07.19 0 .27ZM202.71 185.59l-1.18.68a.51.51 0 0 1-.48 0l-1.12-.64c-.14-.08-.15-.21 0-.28l1.19-.68a.52.52 0 0 1 .47 0l1.12.64c.11.09.12.21 0 .28ZM205.47 187.18l-1.18.69a.54.54 0 0 1-.48 0l-1.12-.65c-.14-.08-.15-.2 0-.27l1.19-.69a.52.52 0 0 1 .47 0l1.12.65c.11.09.13.2 0 .27ZM202.56 188.86l-1.18.69a.54.54 0 0 1-.48 0l-1.11-.65c-.14-.08-.16-.2 0-.27l1.19-.69a.52.52 0 0 1 .47 0l1.12.65c.1.08.12.2-.01.27ZM205.49 190.55l-1.19.68a.49.49 0 0 1-.47 0l-1.12-.64c-.14-.08-.16-.21 0-.28l1.19-.68a.52.52 0 0 1 .47 0l1.12.64c.1.09.12.21 0 .28ZM110.14 146.35 109 147a.52.52 0 0 1-.47 0l-1.12-.65c-.14-.08-.16-.2 0-.27l1.18-.69a.54.54 0 0 1 .48 0l1.11.65c.07.12.08.24-.04.31ZM113.05 144.67l-1.19.69a.52.52 0 0 1-.47 0l-1.12-.65c-.14-.08-.16-.2 0-.27l1.19-.69a.54.54 0 0 1 .48 0l1.11.65c.1.08.12.2 0 .27ZM116 143l-1.19.69a.52.52 0 0 1-.47 0l-1.12-.65c-.14-.08-.16-.2 0-.27l1.19-.69a.52.52 0 0 1 .47 0l1.12.65c.06.07.08.19 0 .27ZM118.87 141.31l-1.19.69a.54.54 0 0 1-.48 0l-1.11-.65c-.14-.08-.16-.2 0-.27l1.19-.69a.52.52 0 0 1 .47 0l1.12.65c.13.08.13.2 0 .27ZM121.77 139.63l-1.18.69a.54.54 0 0 1-.48 0l-1.12-.65c-.14-.08-.15-.2 0-.27l1.19-.69a.52.52 0 0 1 .47 0l1.12.65c.11.08.13.2 0 .27ZM124.68 138l-1.18.69a.54.54 0 0 1-.48 0l-1.12-.69c-.14-.08-.15-.2 0-.27l1.19-.69a.52.52 0 0 1 .47 0l1.12.65c.11.07.12.19 0 .31ZM127.59 136.27l-1.18.69a.54.54 0 0 1-.48 0l-1.12-.65c-.14-.08-.15-.2 0-.27l1.18-.69a.54.54 0 0 1 .48 0l1.12.65c.11.08.12.2 0 .27ZM130.5 134.59l-1.19.69a.52.52 0 0 1-.47 0l-1.12-.65c-.14-.08-.15-.2 0-.27l1.18-.68a.54.54 0 0 1 .48 0l1.12.65c.11.07.12.19 0 .26ZM133.41 132.92l-1.19.68a.52.52 0 0 1-.47 0l-1.12-.65c-.14-.08-.16-.2 0-.27l1.18-.68a.51.51 0 0 1 .48 0l1.11.64c.12.08.13.21.01.28ZM110 149.62l-1.19.69a.52.52 0 0 1-.47 0l-1.12-.65c-.14-.08-.15-.2 0-.27l1.18-.69a.54.54 0 0 1 .48 0l1.12.65c.1.08.11.2 0 .27ZM112.9 147.94l-1.19.69a.52.52 0 0 1-.47 0l-1.12-.65c-.14-.08-.16-.2 0-.27l1.18-.69a.54.54 0 0 1 .48 0l1.12.65c.1.08.1.2 0 .27ZM115.81 146.26l-1.19.69a.52.52 0 0 1-.47 0l-1.12-.65c-.14-.08-.16-.2 0-.27l1.18-.68a.51.51 0 0 1 .48 0l1.11.64c.11.08.13.2.01.27ZM118.72 144.59l-1.19.68a.52.52 0 0 1-.47 0l-1.12-.64c-.14-.09-.16-.21 0-.28l1.19-.68a.49.49 0 0 1 .47 0l1.12.64c.1.08.12.21 0 .28ZM121.63 142.91l-1.19.68a.52.52 0 0 1-.47 0l-1.12-.64c-.14-.09-.16-.21 0-.28L120 142a.52.52 0 0 1 .47 0l1.12.64c.14.07.16.2.04.27ZM124.53 141.23l-1.18.68a.54.54 0 0 1-.48 0l-1.11-.64c-.15-.08-.16-.21 0-.28l1.19-.68a.52.52 0 0 1 .47 0l1.12.64c.1.05.12.21-.01.28ZM127.44 139.55l-1.18.68a.54.54 0 0 1-.48 0l-1.12-.64c-.14-.08-.15-.21 0-.28l1.19-.68a.52.52 0 0 1 .47 0l1.12.64c.11.08.13.21 0 .28ZM130.35 137.87l-1.18.68a.54.54 0 0 1-.48 0l-1.12-.64c-.14-.08-.15-.21 0-.28l1.19-.68a.52.52 0 0 1 .47 0l1.12.64c.11.09.12.21 0 .28ZM133.26 136.19l-1.19.68a.52.52 0 0 1-.47 0l-1.12-.64c-.14-.08-.15-.21 0-.28l1.18-.68a.54.54 0 0 1 .48 0l1.12.64c.11.09.12.21 0 .28Z"/><path class="cls-2" d="m91.63 51.61 23.74-14.56 14.19 8.19-23.72 14.6-14.21-8.19v-.04Z"/><path class="cls-1" d="m105.83 60.68-.4-.24-14.52-8.38v-.84l.35-.22 24.1-14.78.39.21 14.54 8.4v.83l-.37.23ZM93 51.61 105.81 59l22.4-13.73-12.82-7.4ZM105.86 144.1l23.74-14.55v-17.44l-23.75 14.56v17.42s-.01.02.01.01Z"/><path class="cls-1" d="m105.88 144.93-.76-.41v-18.27l.37-.22 24.08-14.76.75.41v18.23l-.33.23Zm.66-17.87v15.79l22.35-13.71v-15.79Z"/><path class="cls-1" d="m114.64 131.71 23.74-14.56v-13.8l-23.74 14.56v13.78s-.01.03 0 .02Z"/><path class="cls-1" d="m114.65 132.53-.74-.4v-14.64l.37-.22 24.08-14.77.75.42v14.63l-.37.22Zm.67-14.24v12.17l22.36-13.71v-12.17Z"/><path class="cls-2" d="m73.17 93.97 23.79-14.58 17.57 10.14-23.78 14.59-17.58-10.15z"/><path class="cls-1" d="m90.76 105-19-11L97 78.56l19 11ZM74.57 94l16.17 9.34 22.4-13.74L97 80.22Z"/><path class="cls-1" d="m73.17 93.97 23.79-14.58-5.96-7.7-11.91 3.08-7.94 14.76 2.02 4.44z"/><path class="cls-1" d="m72.86 95-2.5-5.49 8.25-15.35 12.66-3.28 6.73 8.7ZM72 89.56l1.54 3.38L95.91 79.2l-5.19-6.7-11.15 2.88Z"/><path class="cls-3" d="m114.58 131.71-8.72-5V144a.06.06 0 0 1-.09.06l-15-8.65V118l-31.16-18V87.58l32-35.93 14.2 8.2v53l8.77 5.06v13.78s.01.03 0 .02ZM90.72 104.1V89.82q0-3.57.25-10.23c.16-4.44.3-7 .4-7.67l-.4-.23a32.52 32.52 0 0 1-4.45 6.66L73.19 94Z"/><path class="cls-1" d="M105.76 144.79a.77.77 0 0 1-.39-.11l-15.32-8.84v-17.43l-31.14-18v-13l.15-.2 32.39-36.49 15.08 8.71v53l8.77 5.07v14.6l-.71.43-.39-.2-7.68-4.44v16.53l-.39.26a.79.79 0 0 1-.37.11ZM91.46 135l13.65 7.88v-16.6l.74-.43.37.21 7.68 4.43v-12.18l-8.78-5.07v-53l-13.38-7.7-31.43 35.3v11.71l31.14 18V135Zm-.73-30.09-.37-.21-17.81-10.26-.12-.67.21-.27L86 77.88a32 32 0 0 0 4.35-6.51l.34-.68 1.47.86-.06.45c-.06.45-.19 2.13-.39 7.59-.17 4.42-.25 7.85-.25 10.21v14.7ZM74.27 93.78l15.73 9.1V89.82c0-2.37.09-5.82.25-10.26.09-2.39.17-4.22.24-5.52a32.29 32.29 0 0 1-3.43 4.77Z"/><path class="cls-1" d="m106.07 112.67 23.46-14.38a.17.17 0 0 0 .08-.14v-52.6a.17.17 0 0 0-.25-.14L105.9 59.8a.16.16 0 0 0-.08.13v52.6a.16.16 0 0 0 .25.14Z"/><path class="cls-1" d="M106 113.41a.82.82 0 0 1-.43-.12.86.86 0 0 1-.45-.76v-52.6a.86.86 0 0 1 .42-.74L129 44.81a.84.84 0 0 1 .88 0 .86.86 0 0 1 .45.76v52.6a.87.87 0 0 1-.42.74l-23.46 14.39a.9.9 0 0 1-.45.11Zm.55-53.17v51.31l22.35-13.71V46.53Z"/><path class="cls-2" d="m105.85 112.8 23.75-14.55 8.74 5.05-23.74 14.56-8.75-5v-.06Z"/><path class="cls-1" d="m114.66 118.7-.38-.17-9.14-5.28v-.85l.35-.21 24.1-14.77.39.21 9.09 5.25v.81l-.35.24Zm-7.44-5.9 7.38 4.26 22.4-13.73-7.38-4.26Z"/><path class="cls-3" transform="rotate(-31.5 122.122 127.112)" d="M115.86 126.4h12.55v1.43h-12.55z"/><path class="cls-3" transform="rotate(-31.49 117.668 95.853)" d="M105.59 95.13h24.14v1.43h-24.14z"/><path class="cls-3" transform="rotate(-31.49 110.575 88.282)" d="M106.82 87.57h7.5V89h-7.5z"/><path class="cls-1" d="m140.77 168.19-1.19.68a.52.52 0 0 1-.47 0l-1.12-.64c-.14-.08-.15-.21 0-.28l1.18-.68a.54.54 0 0 1 .48 0l1.12.64c.11.09.12.21 0 .28ZM143.53 169.78l-1.18.69a.54.54 0 0 1-.48 0l-1.12-.65c-.14-.08-.15-.2 0-.27l1.19-.69a.52.52 0 0 1 .47 0l1.12.65c.11.08.12.2 0 .27ZM140.62 171.46l-1.18.68a.51.51 0 0 1-.48 0l-1.12-.65c-.14-.08-.15-.2 0-.27l1.19-.69a.52.52 0 0 1 .47 0l1.12.65c.11.09.12.21 0 .28ZM146.29 171.37l-1.18.69a.54.54 0 0 1-.48 0l-1.12-.65c-.14-.08-.15-.2 0-.27l1.19-.68a.52.52 0 0 1 .47 0l1.12.65c.11.07.12.19 0 .26ZM143.38 173.05l-1.18.69a.54.54 0 0 1-.48 0l-1.12-.65c-.14-.08-.15-.2 0-.27l1.19-.69a.52.52 0 0 1 .47 0l1.12.65c.11.08.13.22 0 .27ZM149.21 173.06l-1.18.69a.54.54 0 0 1-.48 0l-1.11-.65c-.15-.08-.16-.2 0-.27l1.19-.69a.52.52 0 0 1 .47 0l1.12.65c.1.08.12.21-.01.27ZM146.31 174.74l-1.19.69a.54.54 0 0 1-.48 0l-1.11-.65c-.14-.08-.16-.2 0-.27l1.19-.69a.52.52 0 0 1 .47 0l1.12.65c.1.08.12.2 0 .27ZM152 174.66l-1.19.68a.54.54 0 0 1-.48 0l-1.11-.65c-.14-.08-.16-.2 0-.27l1.19-.68a.49.49 0 0 1 .47 0l1.12.64c.08.08.1.21 0 .28ZM149.07 176.33l-1.19.69a.52.52 0 0 1-.47 0l-1.12-.65c-.14-.08-.16-.2 0-.27l1.19-.68a.49.49 0 0 1 .47 0l1.12.64c.1.08.12.2 0 .27ZM154.74 176.25l-1.19.68a.49.49 0 0 1-.47 0l-1.12-.64c-.14-.08-.16-.2 0-.28l1.19-.68a.52.52 0 0 1 .47 0l1.12.65c.1.08.12.2 0 .27ZM151.83 177.93l-1.19.68a.49.49 0 0 1-.47 0l-1.12-.64c-.14-.08-.16-.21 0-.28l1.19-.68a.52.52 0 0 1 .47 0l1.12.64c.1.09.17.21 0 .28ZM157.66 177.94l-1.19.68a.52.52 0 0 1-.47 0l-1.12-.64c-.14-.09-.16-.21 0-.28l1.12-.7a.54.54 0 0 1 .48 0l1.11.64c.17.1.19.23.07.3ZM154.75 179.62l-1.19.68a.52.52 0 0 1-.47 0l-1.12-.64c-.14-.09-.16-.21 0-.28l1.18-.68a.51.51 0 0 1 .48 0l1.11.64c.12.08.13.21.01.28ZM157.64 174.57l-1.18.68a.51.51 0 0 1-.48 0l-1.11-.65c-.14-.08-.16-.2 0-.27l1.19-.69a.52.52 0 0 1 .47 0l1.12.65c.1.09.12.21-.01.28ZM160.57 176.26l-1.19.68a.52.52 0 0 1-.47 0l-1.12-.64c-.14-.08-.16-.21 0-.28l1.19-.68a.52.52 0 0 1 .47 0l1.12.64c.1.08.12.21 0 .28ZM163.48 174.58l-1.19.68a.54.54 0 0 1-.48 0l-1.11-.64c-.14-.08-.16-.21 0-.28l1.19-.68a.52.52 0 0 1 .47 0l1.12.64c.1.08.12.21 0 .28ZM166.38 172.9l-1.18.68a.54.54 0 0 1-.48 0l-1.12-.64c-.14-.08-.15-.21 0-.28l1.19-.68a.52.52 0 0 1 .47 0l1.12.64c.11.09.13.21 0 .28ZM169.29 171.22l-1.18.68a.54.54 0 0 1-.48 0l-1.12-.64c-.14-.08-.15-.21 0-.28l1.19-.68a.52.52 0 0 1 .47 0l1.12.64c.11.06.12.21 0 .28ZM172.2 169.54l-1.19.68a.49.49 0 0 1-.47 0l-1.12-.64c-.14-.08-.15-.2 0-.28l1.18-.68a.54.54 0 0 1 .48 0l1.12.65c.11.08.12.2 0 .27ZM175.11 167.86l-1.19.68a.49.49 0 0 1-.47 0l-1.12-.65c-.14-.08-.15-.2 0-.27l1.18-.69a.54.54 0 0 1 .48 0l1.12.65c.11.09.12.21 0 .28ZM178 166.18l-1.19.69a.52.52 0 0 1-.47 0l-1.12-.65c-.14-.08-.16-.2 0-.27l1.18-.69a.54.54 0 0 1 .48 0l1.11.65c.14.09.15.2.01.27ZM180.93 164.5l-1.19.69a.52.52 0 0 1-.47 0l-1.12-.65c-.14-.08-.16-.2 0-.27l1.19-.69a.54.54 0 0 1 .48 0l1.11.65c.07.08.12.2 0 .27ZM183.84 162.82l-1.19.69a.52.52 0 0 1-.47 0l-1.12-.65c-.14-.08-.16-.2 0-.27l1.19-.69a.52.52 0 0 1 .47 0l1.12.65c.1.08.16.2 0 .27ZM160.42 179.53l-1.19.68a.49.49 0 0 1-.47 0l-1.12-.65c-.14-.08-.16-.2 0-.27l1.18-.69a.54.54 0 0 1 .48 0l1.11.65c.11.09.13.21.01.28ZM163.33 177.85l-1.19.69a.52.52 0 0 1-.47 0l-1.12-.65c-.14-.08-.16-.2 0-.27l1.19-.69a.52.52 0 0 1 .47 0l1.12.65c.1.08.12.2 0 .27ZM166.24 176.17l-1.19.69a.54.54 0 0 1-.48 0l-1.11-.65c-.14-.08-.16-.2 0-.27l1.19-.69a.52.52 0 0 1 .47 0l1.12.65c.1.1.12.2 0 .27ZM169.14 174.49l-1.18.69a.54.54 0 0 1-.48 0l-1.11-.65c-.15-.08-.16-.2 0-.27l1.19-.69a.52.52 0 0 1 .47 0l1.12.65c.1.08.12.2-.01.27ZM172.05 172.81l-1.18.69a.54.54 0 0 1-.48 0l-1.12-.65c-.14-.08-.15-.2 0-.27l1.19-.69a.52.52 0 0 1 .47 0l1.12.65c.11.08.13.2 0 .27ZM175 171.13l-1.18.69a.54.54 0 0 1-.48 0l-1.12-.65c-.14-.08-.15-.2 0-.27l1.19-.69a.52.52 0 0 1 .47 0l1.12.65c.07.08.08.2 0 .27ZM177.87 169.45l-1.19.69a.52.52 0 0 1-.47 0l-1.12-.65c-.14-.08-.15-.2 0-.27l1.18-.69a.54.54 0 0 1 .48 0l1.12.65c.13.08.13.2 0 .27ZM180.78 167.77l-1.19.69a.52.52 0 0 1-.47 0l-1.12-.65c-.14-.08-.16-.2 0-.27l1.18-.68a.51.51 0 0 1 .48 0l1.12.65c.11.07.12.19 0 .26ZM183.69 166.1l-1.19.68a.52.52 0 0 1-.47 0l-1.12-.65c-.14-.08-.16-.2 0-.27l1.18-.68a.51.51 0 0 1 .48 0l1.11.64c.11.08.13.18.01.28Z"/><path class="cls-2" d="M194.71 125.05q0-21.33-6.47-36.13t-19.09-22.1c-7.15-4.12-12.74-4.91-16.82-2.45l-23.72 14.47a.16.16 0 0 0-.07.11l-1.6 20.14 5.33 48.72a.12.12 0 0 0 0 .08l11.91 12.69a.12.12 0 0 0 .08 0l13.9 1.68a.12.12 0 0 1 .11.08l3.51 8.36a.14.14 0 0 0 .19.06l23.84-14.67a10.17 10.17 0 0 0 2.59-2q6.31-6.97 6.31-29.04Z"/><path class="cls-1" d="M161.94 171.56a.78.78 0 0 1-.26 0 .83.83 0 0 1-.52-.47l-3.38-8.09-13.78-1.67-.25-.23-12.08-12.86-.07-.31-5.34-48.81 1.61-20.23a.89.89 0 0 1 .4-.65L152 63.76c4.33-2.6 10.23-1.78 17.55 2.45 8.52 4.91 15 12.46 19.4 22.42s6.52 22.16 6.52 36.42c0 15-2.11 24.7-6.45 29.54a11 11 0 0 1-2.77 2.19l-23.82 14.66a.86.86 0 0 1-.49.12ZM144.6 160l13.69 1.65a.83.83 0 0 1 .67.51l3.25 7.74 23.26-14.32a9.29 9.29 0 0 0 2.44-1.91c4-4.51 6.08-14.12 6.08-28.59 0-14.06-2.15-26.12-6.4-35.85s-10.55-17-18.8-21.76c-6.84-3.95-12.25-4.77-16.1-2.46L129.23 79.3l-1.57 19.79 5.3 48.48Z"/><path class="cls-3" d="m152.27 64.36-23.72 14.48a.11.11 0 0 0-.06.1l-.69 8.6 7 .76 3.91-1.57 3.69-6.87 23.9-14.51c-5.83-2.8-10.5-3.11-14.03-.99Z"/><path class="cls-1" d="m134.88 89-7.88-.82.74-9.3a.82.82 0 0 1 .4-.65l23.76-14.48c3.75-2.25 8.7-1.93 14.71 1l1.19.57-24.88 15.05-3.73 6.93Zm-6.31-2.11 6.11.66 3.5-1.4 3.67-6.82 22.93-13.91c-5-2.15-9.08-2.31-12.14-.46l-23.47 14.33Z"/><path class="cls-3" d="m185.93 84.21-24.09 14-3.13 5.59 3.12 21.52-4.69 35.41-.48 1.37 1.54.18a.15.15 0 0 1 .11.08l3.51 8.36a.13.13 0 0 0 .19.07l23.84-14.68a10.13 10.13 0 0 0 2.59-2q6.27-7 6.27-29.07 0-21.33-6.47-36.13c-.71-1.69-1.49-3.22-2.31-4.7Z"/><path class="cls-1" d="M161.94 171.49a1.17 1.17 0 0 1-.26 0 .88.88 0 0 1-.52-.48l-3.38-8.05-2.09-.25.76-2.14 4.66-35.24-3.11-21.7 3.35-6 24.89-14.43.35.63c.95 1.73 1.69 3.22 2.34 4.69 4.32 9.92 6.52 22.17 6.52 36.42 0 15-2.11 24.7-6.45 29.54a10.77 10.77 0 0 1-2.77 2.19l-23.82 14.66a.87.87 0 0 1-.47.16Zm-4.31-10 .66.08a.82.82 0 0 1 .67.5l3.25 7.74 23.26-14.31a9.31 9.31 0 0 0 2.44-1.92c4-4.5 6.08-14.12 6.08-28.59 0-14-2.15-26.11-6.4-35.84a56.3 56.3 0 0 0-1.93-3.94L162.37 98.7l-2.92 5.21 3.1 21.37-4.73 35.66Z"/><path class="cls-1" d="m191.43 98.33-24 13.91-5.05 6.17 2.34 15.1-8 28.65 1.41.17a.1.1 0 0 1 .1.08l3.51 8.36a.14.14 0 0 0 .19.06l23.84-14.67a10 10 0 0 0 2.6-2q6.27-7 6.26-29.06a102 102 0 0 0-3.2-26.77Z"/><path class="cls-1" d="M161.87 171.56a.73.73 0 0 1-.25 0 .79.79 0 0 1-.52-.47l-3.38-8.09-1.91-.23 8.22-29.3-2.37-15.27 5.45-6.58 24.77-14.37.24.89a103.38 103.38 0 0 1 3.24 26.91c0 15-2.11 24.7-6.45 29.54a10.87 10.87 0 0 1-2.78 2.19l-23.81 14.66a.89.89 0 0 1-.45.12Zm-4.23-10 .58.07a.87.87 0 0 1 .68.5l3.25 7.75 23.26-14.32a9.63 9.63 0 0 0 2.44-1.91c4-4.5 6.08-14.12 6.08-28.59a103 103 0 0 0-3-25.63l-23 13.37-4.77 5.82 2.32 14.94Z"/><path class="cls-3" d="m137.73 145.8 24.05-14.32-.92-6.19c-.26-1.75-3.25-16.07-3.64-17S153.15 92.42 145.16 91l-8-1.43-6.51 13s1.3 2.21-.65 15.1-2 11.72-2 11.72 1.83 12.32 2.61 12.54 7.12 3.87 7.12 3.87Z"/><path class="cls-1" d="m137.73 146.63-.36-.21c-3-1.75-6.43-3.65-6.91-3.8s-1.2-.34-3-12.53h-.09v-.69h.56l-.49-.21c.06-.19.38-1.58 1.89-11.58 1.84-12.11.77-14.56.73-14.66l-.15-.32.14-.33 6.75-13.5 8.51 1.53c5 .9 9.18 6.63 12.38 17 .1.35.17.59.21.69.48 1.1 3.49 15.78 3.7 17.15.26 1.75.91 6.2.91 6.2l.07.47Zm-6.65-5.29c1.16.49 5 2.67 6.64 3.64L161 131.11c-.17-1.19-.63-4.32-.84-5.72-.27-1.83-3.24-15.91-3.6-16.8 0-.11-.13-.4-.27-.83-3.77-12.29-8.2-15.52-11.26-16.07l-7.46-1.34-6.14 12.27c.33 1.1.87 4.7-.72 15.17-1.13 7.44-1.58 10.42-1.94 11.6.78 5.2 1.82 10.92 2.31 11.95Z"/><path class="cls-1" d="m135.25 135.26 24.05-14.32s-.65-4.45-.91-6.2-3.25-16.07-3.65-17-4.07-15.88-12.06-17.32l-8-1.43-6.51 13s1.31 2.22-.65 15.11-2 11.71-2 11.71 1.82 12.32 2.6 12.54 7.13 3.91 7.13 3.91Z"/><path class="cls-1" d="m135.26 136.09-.36-.22c-3-1.75-6.43-3.65-6.91-3.79s-1.2-.34-3-12.53h-.09v-.69h.55l-.48-.2c.06-.19.38-1.59 1.89-11.58 1.84-12.12.77-14.57.72-14.67l-.14-.31.14-.34 6.75-13.49 8.51 1.52c5 .9 9.17 6.64 12.37 17.06.11.35.18.59.22.68.47 1.11 3.49 15.78 3.7 17.16.26 1.74.91 6.19.91 6.19l.07.47Zm-6.65-5.3c1.16.49 5 2.68 6.64 3.64l23.28-13.86c-.18-1.19-.64-4.32-.85-5.72-.27-1.83-3.23-15.92-3.59-16.81-.05-.11-.14-.39-.27-.82-3.77-12.29-8.21-15.53-11.26-16.07l-7.47-1.34L129 92.08c.33 1.09.86 4.7-.72 15.16-1.13 7.45-1.58 10.43-1.94 11.6.73 5.16 1.78 10.92 2.27 11.95Z"/><path class="cls-3" d="M170.92 139.63q0 22.08-6.26 29.07t-19.3-.54q-12.63-7.29-19-21.95t-6.42-36q0-22.31 6.24-29.28t19.22.51q12.63 7.3 19.1 22.1t6.42 36.09ZM135.23 119q0 15.51 2.32 23.56t7.81 11.23c3.6 2.07 6.19 1.31 7.79-2.31s2.4-10.53 2.4-20.75-.81-18.23-2.42-23.68-4.2-9.2-7.77-11.25-6.22-1.34-7.78 2.27-2.35 10.61-2.35 20.93Z"/><path class="cls-1" d="M157.07 172.77c-3.43 0-7.46-1.33-12.06-4-8.52-4.92-15-12.41-19.35-22.28s-6.47-22-6.47-36.33c0-15.2 2.1-24.93 6.42-29.76s11.17-4.79 20.11.38c8.52 4.91 15 12.46 19.39 22.42s6.53 22.17 6.53 36.42c0 15-2.11 24.7-6.45 29.54a10.44 10.44 0 0 1-8.12 3.61Zm-23.33-94.56a9.07 9.07 0 0 0-7.07 3.15c-4 4.49-6 14.19-6 28.81 0 14.09 2.13 26.12 6.35 35.76s10.5 16.85 18.75 21.62c8.43 4.86 14.45 5.08 18.41.67s6.08-14.12 6.08-28.59c0-14.06-2.15-26.12-6.4-35.85S153.25 86.78 145 82c-4.39-2.52-8.13-3.79-11.26-3.79Zm15.17 77.45a8 8 0 0 1-3.9-1.23c-3.81-2.2-6.55-6.12-8.14-11.65s-2.35-13.4-2.35-23.76c0-10.54.78-17.47 2.4-21.21a6 6 0 0 1 3.43-3.64c1.52-.5 3.33-.15 5.37 1 3.71 2.14 6.43 6.07 8.09 11.67s2.45 13.52 2.45 23.88-.8 17.3-2.46 21a6.1 6.1 0 0 1-3.48 3.65 4.67 4.67 0 0 1-1.41.29Zm-7.13-60.28a3.14 3.14 0 0 0-1 .15 4.69 4.69 0 0 0-2.57 2.85c-1.52 3.5-2.29 10.45-2.29 20.64s.77 18.09 2.3 23.36 4 8.8 7.48 10.81c1.65.95 3.05 1.25 4.16.89a4.73 4.73 0 0 0 2.62-2.87c1.55-3.5 2.34-10.39 2.34-20.46 0-10.22-.81-18.12-2.4-23.48s-4.05-8.88-7.43-10.84a6.71 6.71 0 0 0-3.21-1.05Z"/><path class="cls-3" transform="rotate(-29.82 181.772 116.752)" d="M170.95 116.03h21.65v1.43h-21.65z"/><path class="cls-3" transform="rotate(-31.49 141.487 115.261)" d="M136.85 114.55h9.25v1.42h-9.25z"/><path class="cls-3" transform="rotate(-31.5 188.157 122.75)" d="M183.56 122.05h9.25v1.43h-9.25z"/><path class="cls-1" transform="rotate(-29.82 167.104 86.12)" d="M156.28 85.41h21.65v1.43h-21.65z"/><path class="cls-1" d="m213.5 105.27 3.54-3.76-1.1-.7a19.94 19.94 0 0 0-.5-11.29c-2.15-7.15-3.48-17-9.72-22.76-5.86-5.36-16.49-6.71-23.31-8.31-4.43-1-8.26-.91-11.3.2l-.76-1.06-3.74 4c-3.24 3.45-4.2 9-2.12 16 4.17 13.84 19 27.75 33 31.06 7.19 1.62 12.79.22 16.01-3.38Zm-17.94-3.15c-5.22-1.23-7.56-8.17-12-12.35s-11-5.57-12.51-10.7c-3.09-10.28 2.87-16.61 13.31-14.16S205.78 77.69 208.87 88s-2.87 16.58-13.31 14.12Z"/><path class="cls-1" d="M203.28 109.92a25.62 25.62 0 0 1-5.92-.74c-14.24-3.35-29.25-17.47-33.47-31.48-2.08-6.89-1.28-12.76 2.23-16.53v-.06l4.24-4.49.93 1.29a21.1 21.1 0 0 1 11.22-.06c1.18.28 2.47.55 3.83.83 6.59 1.37 14.78 3.08 19.75 7.63s7 12 8.64 18.41c.42 1.63.82 3.18 1.25 4.62a21.06 21.06 0 0 1 .63 11.19l1.35.86-4.2 4.46-.11.12-.15.15c-2.43 2.51-5.96 3.8-10.22 3.8Zm-33-51.36L167.06 62c-3.23 3.44-3.94 8.9-2 15.37 4.1 13.63 18.72 27.38 32.58 30.64 6.72 1.58 12.18.47 15.39-3.12l.4-.45 2.63-2.79-.86-.55.13-.45a19.49 19.49 0 0 0-.5-10.94c-.44-1.46-.84-3-1.27-4.67-1.61-6.27-3.44-13.38-8.28-17.8s-12.72-6-19.16-7.33c-1.37-.29-2.68-.56-3.87-.84a19.34 19.34 0 0 0-11 .18l-.44.16Zm29.56 44.71a19.21 19.21 0 0 1-4.42-.55c-3.52-.83-5.72-4-8.06-7.26a33.84 33.84 0 0 0-4.22-5.24 31.52 31.52 0 0 0-5.39-3.78c-3.22-1.93-6.26-3.75-7.29-7.2-1.56-5.19-1-9.61 1.72-12.45s7-3.72 12.32-2.48c10.62 2.5 21.82 13 25 23.48 1.56 5.19.95 9.61-1.72 12.45a10.48 10.48 0 0 1-7.94 3.03ZM180.08 65a9.25 9.25 0 0 0-7 2.64c-2.36 2.5-2.87 6.5-1.44 11.25.9 3 3.61 4.61 6.75 6.49a32.36 32.36 0 0 1 5.61 3.94 34.77 34.77 0 0 1 4.39 5.43c2.2 3.11 4.27 6 7.33 6.77 4.83 1.13 8.78.38 11.14-2.12s2.87-6.51 1.44-11.25c-3-10.07-13.83-20.22-24.06-22.63a18 18 0 0 0-4.16-.52Z"/><path class="cls-2" d="M219.39 85.31c-4.16-13.84-18.95-27.75-33-31.06s-22.11 5.22-17.94 19.07 19 27.75 33 31.06 22.11-5.22 17.94-19.07Zm-19.88 12.61C189.07 95.46 178.1 85.14 175 74.86s2.87-16.61 13.31-14.15 21.42 12.78 24.51 23.06-2.82 16.61-13.31 14.15Z"/><path class="cls-1" d="M207.23 105.72a25.89 25.89 0 0 1-5.91-.74c-14.24-3.35-29.26-17.48-33.48-31.48-2.08-6.92-1.28-12.81 2.27-16.57s9.37-4.94 16.4-3.28C200.75 57 215.77 71.13 220 85.14c2.08 6.91 1.27 12.79-2.27 16.56-2.51 2.65-6.13 4.02-10.5 4.02ZM180.6 54.15c-4 0-7.34 1.23-9.59 3.62-3.23 3.44-3.94 8.89-2 15.37 4.11 13.63 18.72 27.38 32.58 30.64 6.58 1.55 12 .51 15.22-2.92s3.93-8.89 2-15.37c-4.1-13.63-18.72-27.38-32.58-30.64a24.53 24.53 0 0 0-5.63-.7Zm23.2 44.92a19.23 19.23 0 0 1-4.43-.55c-10.62-2.5-21.82-13-25-23.48-1.56-5.19-.95-9.61 1.72-12.45s7.05-3.72 12.32-2.48c10.62 2.5 21.82 13 25 23.48 1.57 5.19 1 9.61-1.72 12.45a10.45 10.45 0 0 1-7.89 3.03ZM184 60.8a9.26 9.26 0 0 0-7 2.64c-2.36 2.5-2.87 6.5-1.44 11.25 3 10.06 13.83 20.22 24.07 22.63 4.82 1.13 8.78.38 11.13-2.13s2.87-6.5 1.44-11.25c-3-10.06-13.82-20.22-24.06-22.63a18.42 18.42 0 0 0-4.14-.51Z"/><path class="cls-3" transform="rotate(-46.76 189.887 102.683)" d="M187.03 102.06h5.68v1.24h-5.68z"/><path class="cls-3" transform="rotate(-46.76 165.422 71.255)" d="M162.57 70.64h5.68v1.24h-5.68z"/><path class="cls-3" transform="rotate(-46.76 168.19 79.713)" d="M165.33 79.1h5.68v1.24h-5.68z"/><path class="cls-3" transform="rotate(-46.76 209.35 81.983)" d="M206.5 81.36h5.68v1.24h-5.68z"/><path class="cls-3" transform="rotate(-46.76 191.452 64.485)" d="M188.6 63.87h5.68v1.24h-5.68z"/><path class="cls-2" d="M217.05 151.76a.36.36 0 0 0 .25-.46L203.16 105a.66.66 0 0 0-.31-.24l-4.12-1a1.53 1.53 0 0 0-1.28.44l-2.74 2.92a.61.61 0 0 0-.19.42l14.15 46.34a.37.37 0 0 0 .46.24Z"/><path class="cls-1" d="M209 154.75a1 1 0 0 1-.94-.7l-14.16-46.42v-.09a1.23 1.23 0 0 1 .36-.85l2.74-2.92a2.12 2.12 0 0 1 1.87-.62l4.12 1a1.23 1.23 0 0 1 .67.49l.09.17 14.14 46.34a1 1 0 0 1-.07.76 1 1 0 0 1-.59.48l-7.93 2.34a.92.92 0 0 1-.3.02Zm-13.86-47.22 14 45.92 7.45-2.21-14-45.93-4-1a.94.94 0 0 0-.69.27Z"/><path class="cls-3" d="m213.22 155.55-4.12-1c-.39-.09-.45-.43-.14-.77l2.75-2.92a1.5 1.5 0 0 1 1.28-.44l4.12 1c.39.09.44.44.13.77l-2.75 2.92a1.45 1.45 0 0 1-1.27.44Z"/><path class="cls-1" d="M213.41 156.19a2 2 0 0 1-.34 0l-4.12-1a1 1 0 0 1-.77-.69 1.13 1.13 0 0 1 .34-1.11l2.74-2.92a2.12 2.12 0 0 1 1.87-.62l4.12 1a1 1 0 0 1 .77.68 1.14 1.14 0 0 1-.33 1.11l-2.75 2.92a2.19 2.19 0 0 1-1.53.63Zm-3.83-2.13 3.78.89a.88.88 0 0 0 .68-.26l2.59-2.75-3.79-.89a.89.89 0 0 0-.68.26Z"/><path class="cls-1" d="m196.57 105.14-1.86 1.97 14.25 46.7 1.83-1.94-14.22-46.73z"/><path class="cls-1" transform="rotate(-16.98 203.33 119.279)" d="M202.75 106.69h1.24v25.18h-1.24z"/><path class="cls-1" transform="rotate(-16.98 209.557 139.966)" d="M208.96 135.81h1.24v8.34h-1.24z"/><path class="cls-3" d="M192.92 107.81a60.81 60.81 0 0 1-8.5-4.39l.67-1a59.89 59.89 0 0 0 8.3 4.29Z"/><path class="cls-1" d="m207 205.24-1.19.68a.52.52 0 0 1-.47 0l-1.12-.64c-.14-.08-.15-.21 0-.28l1.18-.68a.54.54 0 0 1 .48 0l1.12.64c.08.09.09.21 0 .28ZM209.73 206.83l-1.18.69a.54.54 0 0 1-.48 0l-1.12-.65c-.14-.08-.15-.2 0-.27l1.18-.69a.54.54 0 0 1 .48 0l1.12.65c.11.08.12.2 0 .27ZM206.82 208.51l-1.18.69a.54.54 0 0 1-.48 0l-1.12-.65c-.14-.08-.15-.2 0-.27l1.19-.69a.52.52 0 0 1 .47 0l1.12.65c.11.08.12.2 0 .27ZM212.49 208.43l-1.18.68a.54.54 0 0 1-.48 0l-1.12-.64c-.14-.09-.15-.21 0-.28l1.19-.68a.52.52 0 0 1 .47 0l1.12.64c.11.08.12.21 0 .28ZM209.58 210.11l-1.18.68a.54.54 0 0 1-.48 0l-1.12-.64c-.14-.09-.15-.21 0-.28l1.19-.68a.52.52 0 0 1 .47 0l1.12.64c.11.08.13.17 0 .28ZM215.41 210.11l-1.18.69a.54.54 0 0 1-.48 0l-1.11-.65c-.15-.08-.16-.2 0-.27l1.19-.69a.52.52 0 0 1 .47 0l1.12.65c.1.08.12.16-.01.27ZM212.51 211.79l-1.19.69a.54.54 0 0 1-.48 0l-1.11-.65c-.14-.08-.16-.2 0-.27l1.19-.69a.52.52 0 0 1 .47 0l1.12.65c.1.08.12.2 0 .27ZM218.18 211.71l-1.19.68a.54.54 0 0 1-.48 0l-1.11-.64c-.14-.08-.16-.21 0-.28l1.19-.68a.52.52 0 0 1 .47 0l1.12.64c.1.08.12.21 0 .28ZM215.27 213.39l-1.19.68a.52.52 0 0 1-.47 0l-1.12-.64c-.14-.08-.16-.21 0-.28l1.19-.68a.52.52 0 0 1 .47 0l1.12.64c.1.08.12.21 0 .28ZM220.94 213.3l-1.19.69a.54.54 0 0 1-.48 0l-1.11-.65c-.14-.08-.16-.2 0-.27l1.19-.69a.52.52 0 0 1 .47 0l1.12.65c.06.08.12.2 0 .27ZM218 215l-1.19.69a.52.52 0 0 1-.47 0l-1.12-.65c-.14-.08-.16-.2 0-.27l1.19-.69a.52.52 0 0 1 .47 0l1.12.65c.13.06.15.18 0 .27ZM223.86 215l-1.19.68a.52.52 0 0 1-.47 0l-1.12-.64c-.14-.08-.16-.21 0-.28l1.19-.68a.54.54 0 0 1 .48 0l1.11.64c.14.07.14.2 0 .28ZM221 216.67l-1.19.68a.52.52 0 0 1-.47 0l-1.12-.64c-.14-.08-.16-.21 0-.28l1.18-.68a.54.54 0 0 1 .48 0l1.11.64c.07.08.08.21.01.28ZM226.77 213.31l-1.19.68a.52.52 0 0 1-.47 0l-1.12-.64c-.14-.08-.16-.21 0-.28l1.19-.68a.52.52 0 0 1 .47 0l1.12.64c.1.09.12.21 0 .28ZM229.68 211.63l-1.19.68a.51.51 0 0 1-.48 0l-1.11-.64c-.14-.08-.16-.2 0-.28l1.19-.68a.52.52 0 0 1 .47 0l1.12.65c.1.08.12.2 0 .27ZM232.58 210l-1.18.68a.54.54 0 0 1-.48 0l-1.12-.68c-.14-.08-.15-.2 0-.27l1.2-.73a.52.52 0 0 1 .47 0l1.12.65c.1.11.12.23-.01.35ZM235.49 208.27l-1.18.69a.54.54 0 0 1-.48 0l-1.12-.65c-.14-.08-.15-.2 0-.27l1.19-.69a.52.52 0 0 1 .47 0l1.12.65c.11.08.12.2 0 .27ZM238.4 206.59l-1.19.69a.52.52 0 0 1-.47 0l-1.12-.65c-.14-.08-.15-.2 0-.27l1.18-.69a.54.54 0 0 1 .48 0l1.12.65c.11.08.12.2 0 .27ZM241.31 204.91l-1.19.69a.52.52 0 0 1-.47 0l-1.12-.65c-.14-.08-.15-.2 0-.27l1.18-.69a.54.54 0 0 1 .48 0l1.12.65c.11.08.12.2 0 .27ZM244.22 203.23l-1.19.69a.52.52 0 0 1-.47 0l-1.12-.65c-.14-.08-.16-.2 0-.27l1.18-.69a.54.54 0 0 1 .48 0l1.11.65c.12.04.13.2.01.27ZM247.13 201.55l-1.19.69a.52.52 0 0 1-.47 0l-1.12-.65c-.14-.08-.16-.2 0-.27l1.19-.69a.54.54 0 0 1 .48 0l1.11.65c.1.08.12.2 0 .27ZM250 199.87l-1.19.69a.52.52 0 0 1-.47 0l-1.12-.65c-.14-.08-.16-.2 0-.27l1.19-.69a.52.52 0 0 1 .47 0l1.12.65c.14.08.16.2 0 .27ZM226.62 216.58l-1.19.69a.52.52 0 0 1-.47 0l-1.12-.65c-.14-.08-.16-.2 0-.27l1.19-.69a.54.54 0 0 1 .48 0l1.11.65c.1.08.12.2 0 .27ZM229.53 214.9l-1.19.69a.52.52 0 0 1-.47 0l-1.12-.65c-.14-.08-.16-.2 0-.27l1.19-.69a.52.52 0 0 1 .47 0l1.12.65c.1.08.12.2 0 .27ZM232.44 213.22l-1.19.69a.54.54 0 0 1-.48 0l-1.11-.65c-.14-.08-.16-.2 0-.27l1.19-.69a.52.52 0 0 1 .47 0l1.12.65c.1.05.12.2 0 .27ZM235.34 211.54l-1.18.69a.54.54 0 0 1-.48 0l-1.11-.65c-.15-.08-.16-.2 0-.27l1.19-.69a.52.52 0 0 1 .47 0l1.12.65c.1.08.12.2-.01.27ZM238.25 209.86l-1.18.69a.54.54 0 0 1-.48 0l-1.12-.65c-.14-.08-.15-.2 0-.27l1.19-.68a.49.49 0 0 1 .47 0l1.12.65c.11.07.12.19 0 .26ZM241.16 208.18l-1.18.69a.54.54 0 0 1-.48 0l-1.12-.65c-.14-.08-.15-.2 0-.27l1.19-.68a.49.49 0 0 1 .47 0l1.12.64c.11.09.12.2 0 .27ZM244.07 206.51l-1.19.68a.52.52 0 0 1-.47 0l-1.12-.64c-.14-.09-.15-.21 0-.28l1.18-.68a.51.51 0 0 1 .48 0l1.12.64c.11.08.12.21 0 .28ZM247 204.83l-1.19.68a.52.52 0 0 1-.47 0l-1.12-.64c-.14-.09-.16-.21 0-.28l1.18-.68a.54.54 0 0 1 .48 0l1.12.64c.09.08.1.21 0 .28ZM249.89 203.15l-1.19.68a.52.52 0 0 1-.47 0l-1.12-.64c-.14-.08-.16-.21 0-.28l1.19-.68a.54.54 0 0 1 .48 0l1.11.64c.11.13.11.21 0 .28Z"/><path class="cls-2" d="m208.35 118.68 23.74-14.56 14.19 8.19-23.72 14.59-14.19-8.19s-.04-.03-.02-.03Z"/><path class="cls-1" d="m222.57 127.73-.39-.21-14.53-8.39v-.82l.37-.24 24.1-14.78.38.21 14.5 8.39v.83l-.36.23Zm-12.86-9 12.82 7.4 22.4-13.73-12.82-7.41ZM222.58 211.17l23.74-14.56v-17.43l-23.74 14.56v17.42s-.02.02 0 .01Z"/><path class="cls-1" d="m222.59 212-.75-.41v-18.27l.37-.22 24.08-14.77.75.41V197l-.37.22Zm.67-17.87v15.79l22.36-13.7v-15.8Z"/><path class="cls-1" d="m231.36 198.77 23.74-14.55v-13.81L231.34 185v13.79l.02-.02Z"/><path class="cls-1" d="m231.37 199.6-.74-.41v-14.6l.33-.23 24.12-14.79.75.41v14.63l-.37.23Zm.68-14.24v12.16l22.35-13.71v-12.16Z"/><path class="cls-2" d="m189.9 161.04 23.78-14.59 17.57 10.15-23.78 14.58-17.57-10.14z"/><path class="cls-1" d="m207.48 172-19-11 25.17-15.43 19 11Zm-16.19-11 16.17 9.33 22.4-13.73-16.17-9.34Z"/><path class="cls-1" d="m189.9 161.04 23.78-14.59-5.96-7.7-11.9 3.09-7.94 14.76 2.02 4.44z"/><path class="cls-1" d="m189.58 162.07-2.5-5.5 8.26-15.35L208 138l6.73 8.7Zm-.91-5.44 1.54 3.38 22.42-13.75-5.19-6.7-11.14 2.89Z"/><path class="cls-3" d="m231.3 198.78-8.72-5v17.39l-15-8.68V185l-31.13-18v-12.4l32-35.92 14.21 8.2v53l8.76 5.06v13.81s-.1.03-.12.03Zm-23.86-27.62v-14.27q0-3.58.25-10.24t.4-7.66l-.4-.23a32.14 32.14 0 0 1-4.44 6.65L189.91 161Z"/><path class="cls-1" d="m222.52 212-.37-.22-15.38-8.88v-17.47l-31.15-18v-13.1l.22-.22 32.35-36.34 15.08 8.7v53l8.77 5.07v14.62l-.71.44-.4-.21-7.67-4.39v16.61Zm-14.34-9.93 13.65 7.93v-16.66l.74-.43.37.22 7.68 4.43v-12.19l-8.78-5.07v-53l-13.37-7.72L177 154.91v11.71l31.14 18v17.47Zm-.73-30.07-.37-.21-17.81-10.29-.12-.66.21-.27L202.73 145a31.81 31.81 0 0 0 4.35-6.52l.34-.67 1.48.85-.08.48c-.09.64-.22 3.2-.39 7.59s-.25 7.85-.25 10.2v14.68ZM191 160.85l15.76 9.1v-13.07c0-2.37.08-5.82.25-10.25.09-2.39.16-4.22.24-5.53a33.76 33.76 0 0 1-3.44 4.78Z"/><path class="cls-1" d="m222.73 179.77 23.54-14.43a.11.11 0 0 0 .06-.11v-52.68a.13.13 0 0 0-.19-.11l-23.53 14.43a.14.14 0 0 0-.06.11v52.68a.12.12 0 0 0 .18.11Z"/><path class="cls-1" d="M222.67 180.5a.82.82 0 0 1-.84-.84V127a.86.86 0 0 1 .4-.72l23.54-14.42a.82.82 0 0 1 .84 0 .83.83 0 0 1 .43.73v52.68a.83.83 0 0 1-.4.72l-23.53 14.43a.88.88 0 0 1-.44.08Zm.59-53.19v51.3l22.36-13.7V113.6Z"/><path class="cls-2" d="m222.58 179.87 23.74-14.56 8.74 5.05L231.34 185l-8.74-5s-.04-.12-.02-.13Z"/><path class="cls-1" d="m231.36 185.78-.39-.21-9.1-5.25v-.82l.35-.24 24.11-14.78.38.21 9.09 5.31v.83l-.36.23Zm-7.42-5.91 7.38 4.26 22.4-13.73-7.38-4.27Z"/><path class="cls-3" transform="rotate(-31.47 238.898 194.192)" d="M232.58 193.47h12.55v1.43h-12.55z"/><path class="cls-3" transform="rotate(-31.48 234.358 158.909)" d="M222.31 158.2h24.15v1.43h-24.15z"/><path class="cls-3" transform="rotate(-31.48 227.275 151.359)" d="M223.54 150.65h7.5v1.43h-7.5z"/><path class="cls-1" d="m36.11 222.4-1.19.68a.52.52 0 0 1-.47 0l-1.12-.64c-.14-.08-.15-.21 0-.28l1.18-.68a.54.54 0 0 1 .48 0l1.12.64c.11.08.12.21 0 .28ZM38.87 224l-1.19.69a.52.52 0 0 1-.47 0l-1.12-.69c-.14-.08-.15-.2 0-.27l1.18-.69a.54.54 0 0 1 .48 0l1.12.65c.13.11.13.23 0 .31ZM36 225.67l-1.18.69a.54.54 0 0 1-.48 0l-1.12-.65c-.14-.08-.15-.2 0-.27l1.19-.69a.52.52 0 0 1 .47 0l1.12.65c.07.08.08.2 0 .27ZM41.63 225.59l-1.18.68a.54.54 0 0 1-.48 0l-1.12-.64c-.14-.09-.15-.21 0-.28l1.19-.68a.49.49 0 0 1 .47 0l1.12.64c.11.08.12.21 0 .28ZM38.72 227.27l-1.18.68a.54.54 0 0 1-.48 0l-1.12-.65c-.14-.08-.15-.2 0-.27l1.19-.68a.49.49 0 0 1 .47 0l1.12.64c.11.08.12.2 0 .28ZM44.55 227.27l-1.18.69a.54.54 0 0 1-.48 0l-1.12-.65c-.14-.08-.15-.2 0-.27l1.19-.69a.52.52 0 0 1 .47 0l1.12.65c.11.08.13.2 0 .27ZM41.64 229l-1.18.69a.54.54 0 0 1-.48 0l-1.11-.69c-.14-.08-.16-.2 0-.27L40 228a.52.52 0 0 1 .47 0l1.12.65c.16.11.18.23.05.35ZM47.46 225.59l-1.18.69a.54.54 0 0 1-.48 0l-1.12-.65c-.14-.08-.15-.2 0-.27l1.19-.69a.52.52 0 0 1 .47 0l1.12.65c.11.08.12.2 0 .27ZM50.37 223.91l-1.19.69a.52.52 0 0 1-.47 0l-1.12-.65c-.14-.08-.15-.2 0-.27l1.18-.69a.54.54 0 0 1 .48 0l1.12.65c.11.08.12.2 0 .27ZM47.31 228.87l-1.18.68a.54.54 0 0 1-.48 0l-1.11-.64c-.15-.09-.16-.21 0-.28l1.19-.68a.52.52 0 0 1 .47 0l1.12.64c.1.08.12.21-.01.28ZM50.22 227.19l-1.18.68a.54.54 0 0 1-.48 0l-1.12-.64c-.14-.08-.15-.21 0-.28l1.19-.68a.52.52 0 0 1 .47 0l1.12.64c.11.09.12.21 0 .28ZM91.61 255.22l-1.19.69a.52.52 0 0 1-.47 0l-1.12-.65c-.14-.08-.16-.2 0-.27l1.19-.69a.52.52 0 0 1 .47 0l1.12.65c.1.05.12.2 0 .27ZM94.37 256.81l-1.19.69a.52.52 0 0 1-.47 0l-1.12-.65c-.14-.08-.16-.2 0-.27l1.19-.69a.52.52 0 0 1 .47 0l1.12.65c.1.08.12.2 0 .27ZM91.46 258.49l-1.19.69a.52.52 0 0 1-.47 0l-1.12-.65c-.14-.08-.16-.2 0-.27l1.19-.69a.54.54 0 0 1 .48 0l1.11.65c.1.08.12.2 0 .27ZM97.13 258.41l-1.19.68a.52.52 0 0 1-.47 0l-1.12-.64c-.14-.08-.16-.21 0-.28l1.19-.68a.54.54 0 0 1 .48 0l1.11.64c.1.09.12.21 0 .28ZM94.22 260.09l-1.19.68a.52.52 0 0 1-.47 0l-1.12-.64c-.14-.08-.16-.21 0-.28l1.18-.68a.54.54 0 0 1 .48 0l1.11.64c.12.08.13.19.01.28ZM100.05 260.1l-1.19.68a.52.52 0 0 1-.47 0l-1.12-.65c-.14-.08-.16-.2 0-.27l1.18-.68a.51.51 0 0 1 .48 0l1.12.64c.11.08.12.18 0 .28ZM97.14 261.77l-1.19.69a.52.52 0 0 1-.47 0l-1.12-.65c-.14-.08-.15-.2 0-.27l1.18-.68a.51.51 0 0 1 .48 0l1.12.65c.11.07.12.19 0 .26ZM103 258.42l-1.19.68a.52.52 0 0 1-.47 0l-1.12-.64c-.14-.09-.16-.21 0-.28l1.19-.68a.51.51 0 0 1 .48 0l1.11.64c.06.08.08.21 0 .28ZM105.87 256.74l-1.19.68a.52.52 0 0 1-.47 0l-1.12-.64c-.14-.09-.16-.21 0-.28l1.19-.68a.52.52 0 0 1 .47 0l1.12.64c.13.08.13.21 0 .28ZM102.81 261.69l-1.19.68a.49.49 0 0 1-.47 0l-1.12-.64c-.14-.08-.15-.21 0-.28l1.18-.68a.54.54 0 0 1 .48 0l1.12.64c.11.09.12.21 0 .28ZM105.72 260l-1.19.68a.49.49 0 0 1-.47 0l-1.12-.64c-.14-.08-.16-.2 0-.27l1.18-.69a.54.54 0 0 1 .48 0l1.11.65c.12.09.13.21.01.27ZM141.53 226.32l-1.18.68a.54.54 0 0 1-.48 0l-1.12-.64c-.14-.09-.15-.21 0-.28l1.19-.68a.49.49 0 0 1 .47 0l1.12.64c.11.08.13.21 0 .28ZM144.29 227.91l-1.18.68a.51.51 0 0 1-.48 0l-1.12-.64c-.14-.08-.15-.2 0-.27l1.19-.69a.52.52 0 0 1 .47 0l1.12.65c.11.08.13.2 0 .27ZM141.39 229.59l-1.19.68a.51.51 0 0 1-.48 0l-1.11-.64c-.14-.08-.16-.21 0-.28l1.19-.68a.52.52 0 0 1 .47 0l1.12.64c.1.09.12.21 0 .28ZM147.06 229.5l-1.19.69a.54.54 0 0 1-.48 0l-1.11-.65c-.14-.08-.16-.2 0-.27l1.19-.69a.52.52 0 0 1 .47 0l1.12.65c.1.08.12.2 0 .27ZM144.15 231.18l-1.19.69a.52.52 0 0 1-.47 0l-1.12-.65c-.14-.08-.16-.2 0-.27l1.19-.69a.52.52 0 0 1 .47 0l1.12.65c.1.09.12.2 0 .27ZM150 231.19l-1.19.69a.52.52 0 0 1-.47 0l-1.12-.65c-.14-.08-.16-.2 0-.27l1.19-.69a.52.52 0 0 1 .47 0l1.12.65c.08.08.1.2 0 .27ZM147.07 232.87l-1.19.68a.49.49 0 0 1-.47 0l-1.12-.64c-.14-.08-.16-.2 0-.27l1.19-.69a.54.54 0 0 1 .48 0l1.11.65c.1.08.12.2 0 .27ZM152.89 229.51l-1.19.69a.54.54 0 0 1-.48 0l-1.11-.65c-.14-.08-.16-.2 0-.27l1.19-.69a.52.52 0 0 1 .47 0l1.12.65c.11.08.11.2 0 .27ZM155.79 227.83l-1.18.69a.54.54 0 0 1-.48 0l-1.12-.65c-.14-.08-.15-.2 0-.27l1.19-.69a.52.52 0 0 1 .47 0l1.12.65c.11.08.13.2 0 .27ZM152.74 232.78l-1.19.69a.52.52 0 0 1-.47 0l-1.08-.67c-.14-.08-.16-.2 0-.27l1.19-.69a.54.54 0 0 1 .48 0l1.11.65c.06.1.08.22-.04.29ZM155.65 231.1l-1.19.69a.52.52 0 0 1-.47 0l-1.12-.65c-.14-.08-.16-.2 0-.27l1.19-.68a.49.49 0 0 1 .47 0l1.12.64c.1.08.12.17 0 .27ZM93 194.89l-23.52-46.55L46 222.07l-2.85 1.65L69.46 141l26.39 52.26-2.85 1.63Z"/><path class="cls-1" d="m43 224.48-.68-.54.14-.42L69 140.42l.83-.09.2.37 26.67 52.82-.55.29-3.34 1.9-.37-.54-22.84-45.23-23.13 72.52-.19.13Zm26.6-81.89-25.46 79.82 1.3-.75L69 147.77l.81-.09.19.32 23.23 46 1.81-1Z"/><path class="cls-2" d="m35.39 219.22 7.66 4.52L69.47 141l-7.66-4.53-26.43 82.73s0 .01.01.02Z"/><path class="cls-1" d="m43 224.43-.27-.16-8.11-4.79.19-.51 26.47-83 .57-.2.25.14 8.12 4.79-.17.49-26.48 83Zm-6.88-5.5 6.59 3.89 26-81.58-6.6-3.89Z"/><path class="cls-3" d="m85.31 190.36 7.69 4.52-23.5-46.52-2.08 6.52 17.93 35.49Z"/><path class="cls-1" d="m93.09 195.64-.42-.22-7.87-4.69v-.09l-18-35.72 2.2-7.15.81-.09.19.32 23.73 47Zm-7.31-5.72 5.71 3.38-21.89-43.36-1.55 4.88Z"/><path class="cls-3" d="m141.09 222.85 7.65 4.52-23.5-46.52-2.08 6.52 17.92 35.49Z"/><path class="cls-1" d="m148.86 228.13-.42-.22-7.81-4.6-.1-.19-18-35.71 2.28-7.16.83-.09.21.39 23.69 46.92Zm-7.3-5.72 5.71 3.37-21.89-43.35-1.55 4.88Z"/><path class="cls-1" d="m78.69 177.8 61.56 37 1.47-.84-2.68-5.3-62.88-35.89-1.47.84 4 4.18Z"/><path class="cls-1" d="m140.22 215.58-.34-.25-61.58-37.05-4.63-4.81 2.45-1.4.31.15 63 36 .13.11v.16l2.91 5.73-.5.31Zm-61.14-38.27 61.19 36.82.65-.38-2.33-4.62-62.44-35.65-.49.28Z"/><path class="cls-3" d="m77.21 178.65 63 36.18-2.66-5.28-62.85-35.92 2.52 5Z"/><path class="cls-1" d="m140.31 215.59-.4-.23-63.08-36.22-.17-.22-2.73-5.39.65-.66.42.22L138 209l.18.23L141 215ZM77.68 178.2l61.1 35.08-1.67-3.3-61-34.81Z"/><path class="cls-2" d="m91.16 251.71 7.67 4.52 26.4-82.76-7.66-4.53-26.4 82.76Z"/><path class="cls-1" d="m98.8 256.92-.27-.15-8.06-4.77.08-.44 26.52-83.13.56-.19.25.14 8.11 4.78-.16.49-26.48 83Zm-6.9-5.5 6.59 3.89 26-81.58-6.6-3.89Z"/><path class="cls-1" d="m148.77 227.38-23.51-46.55-23.51 73.73-2.85 1.66 26.39-82.73 26.39 52.26-2.87 1.63Z"/><path class="cls-1" d="m98.81 257-.65-.52.1-.4 26.52-83.14.81-.1.21.37L152.48 226l-.55.29-3.41 1.94-.3-.59-22.84-45.22L102.24 255l-.24.13Zm26.57-81.89L99.92 254.9l1.29-.75 23.57-73.9.83-.09.21.39 23.21 46 1.81-1Z"/><path class="cls-1" d="m39.92 204.72 61.9 37.77 1.54-.75 1.35-4.43-63.42-37-1.55.75.16 3.6Z"/><path class="cls-1" d="m101.79 243.2-.31-.19-62.17-37.93v-.37l-.18-3.92.3-.21 1.91-.93.29.16L105.42 237l-.07.44-1.44 4.71-.18.13Zm-61.27-38.84 61.35 37.44 1-.5 1.13-3.71-62.71-36.54-.9.43Z"/><path class="cls-3" d="m38.37 205.47 63.45 37 1.36-4.41-63.41-36.95-1.38 4.34-.02.02Z"/><path class="cls-1" d="m101.78 243.17-.27-.14-63.91-37.3.19-.5 1.46-4.59.56-.21.26.14L104 237.79l-.19.51-1.42 4.64Zm-62.68-38 62.37 36.38 1-3.22L40.11 202Z"/><path class="cls-3" d="m103.73 241.85-.68-.23 1.36-3.99.67.23-1.35 3.99z"/><path class="cls-3" transform="rotate(-26.8 140.031 210.615)" d="M139.68 208.45h.71v4.36h-.71z"/><path class="cls-3" transform="rotate(-59.76 71.224 149.821)" d="M70.76 146.12h.95v7.42h-.95z"/><path class="cls-3" d="m43.8 193.91 63.41 36.94 6.56-20.65-63.6-36.57-1.28.36-5.08 19.9Z"/><path class="cls-1" d="m107.13 231.54-.27-.17-63.36-36.91-.4-.2.08-.48 5.18-20.28 1.84-.5.2.08 64.07 36.81-.08.45-6.67 21ZM44.5 193.61l62.36 36.33 6.19-19.46-63-36.18-.7.19Z"/><path class="cls-3" d="m42.5 194.28 63.41 36.94 6.56-20.65L48.89 174l-6.39 20.27Z"/><path class="cls-1" d="m106.31 232.05-.64-.26-63.51-37-.38-.25.13-.45 6.46-20.54.52-.23.27.13 64 36.78-.08.45ZM43.23 194l62.34 36.32 6.18-19.47-62.52-35.94Z"/><path class="cls-2" d="m48.8 197.95 25.34-9.44 11.08 6.37-25.87 9.21-10.55-6.14z"/><path class="cls-1" d="m59.29 204.77-11.92-6.94 26.82-10 12.5 7.17Zm-9-6.7 9.18 5.35 24.33-8.67-9.67-5.56Z"/><path class="cls-2" d="m69.32 209.79 25.33-9.44 11.09 6.37-25.87 9.21-10.55-6.14z"/><path class="cls-1" d="m79.81 216.61-11.93-7 26.83-10 12.5 7.18Zm-9-6.7 9.17 5.34 24.34-8.66L94.6 201Z"/><path class="cls-2" d="m89.84 221.63 21.7-8.09-3.67 11.57-7.48 2.66-10.55-6.14z"/><path class="cls-1" d="M100.33 228.45 88.4 221.5l24.12-9-4.16 13.06Zm-9-6.7 9.17 5.34 6.92-2.46 3.2-10.07Z"/><path class="cls-2" d="m47.29 179.03 6.33-2.36 11.08 6.37-21.03 7.49 3.62-11.5z"/><path class="cls-1" d="m42.71 191.53 4.08-13 6.88-2.53 12.5 7.18Zm5.08-12-3.16 10 18.6-6.63-9.67-5.56Z"/><path class="cls-3" d="m52.87 164.26 63.42 36.94 6.56-20.65L59.25 144l-1.28.36-5.08 19.9Z"/><path class="cls-1" d="m116.21 201.89-.27-.18-63.35-36.9-.42-.19.09-.5 5.18-20.26.32-.11 1.55-.44.22.11 64 36.79-.08.45-6.67 21ZM53.58 164l62.36 36.33 6.19-19.47-63-36.17-.69.19Z"/><path class="cls-3" d="M51.58 164.62 115 201.56l6.56-20.65L58 144.34l-6.37 20.26Z"/><path class="cls-1" d="m115 202.24-.27-.13-63.48-37-.38-.25.12-.45 6.47-20.55.56-.22.27.15 64.06 36.81-.2.51-6.64 20.89Zm-62.69-37.91 62.34 36.31 6.18-19.46-62.52-35.93Z"/><path class="cls-2" d="m57.88 168.29 25.34-9.44 11.08 6.37-25.87 9.22-10.55-6.15z"/><path class="cls-1" d="m68.37 175.11-11.93-6.94 26.83-10 12.5 7.18Zm-9.05-6.7 9.18 5.35 24.33-8.67-9.67-5.56Z"/><path class="cls-2" d="m78.4 180.13 25.33-9.44 11.09 6.37-25.87 9.21-10.55-6.14z"/><path class="cls-1" d="M88.89 187 77 180l26.83-10 12.5 7.18Zm-9-6.7 9.11 5.3 24.34-8.67-9.67-5.56Z"/><path class="cls-2" d="m98.92 191.97 21.7-8.09-3.67 11.57-7.48 2.66-10.55-6.14z"/><path class="cls-1" d="m109.41 198.79-11.93-6.95 24.12-9-4.16 13.07Zm-9-6.7 9.17 5.34 6.92-2.46 3.2-10.07Z"/><path class="cls-2" d="m56.37 149.37 6.33-2.36 11.08 6.37-21.03 7.5 3.62-11.51z"/><path class="cls-1" d="m51.79 161.87 4.08-13 6.88-2.57 12.5 7.19Zm5.08-12-3.16 10 18.6-6.63-9.67-5.55Z"/><path class="cls-3" d="m74.26 139.69-14-2.71-5.37.71v5a2 2 0 0 0 1.11 1.56l7.52 4.34a5.34 5.34 0 0 0 4.83.2l5.12-2.95a1.47 1.47 0 0 0 .82-1.21v-4.89l-.03-.05Z"/><path class="cls-1" d="M66.24 149.89a6.28 6.28 0 0 1-3-.76l-7.52-4.34a2.6 2.6 0 0 1-1.48-2.1v-5.5l.58-.12 5.49-.72h.13l14.48 2.79v5.46a2 2 0 0 1-1.13 1.74l-5.12 3a4.92 4.92 0 0 1-2.43.55Zm-10.8-11.66v4.45c0 .34.32.73.86 1l7.51 4.34a4.81 4.81 0 0 0 4.22.2l5.12-3a.86.86 0 0 0 .51-.67v-4.35l-13.46-2.6Z"/><path class="cls-1" d="M65.91 138.07v11.19a4.44 4.44 0 0 0 2.44-.46l5.12-3a1.44 1.44 0 0 0 .82-1.2v-4.9a.07.07 0 0 0 0-.05Z"/><path class="cls-1" d="M66.26 149.89h-.97v-12.56l9.59 1.85V144.64a2.05 2.05 0 0 1-1.13 1.74l-5.12 3a4.84 4.84 0 0 1-2.37.51Zm.26-11.07v9.83a3.5 3.5 0 0 0 1.52-.39l5.12-2.95a.88.88 0 0 0 .51-.68v-4.42Z"/><path class="cls-2" d="m73.47 140.85-5.12 3a5.34 5.34 0 0 1-4.83-.2L56 139.26c-1.43-.82-1.59-2.07-.35-2.79l5.12-2.95a5.34 5.34 0 0 1 4.83.2l7.52 4.34c1.43.82 1.59 2.07.35 2.79Z"/><path class="cls-1" d="M66.24 144.9a6.28 6.28 0 0 1-3-.76l-7.52-4.34a2.58 2.58 0 0 1-1.49-2.12 2 2 0 0 1 1.14-1.74l5.12-3a6 6 0 0 1 5.45.2l7.52 4.34a2.58 2.58 0 0 1 1.49 2.11 2 2 0 0 1-1.14 1.75l-5.12 3a4.92 4.92 0 0 1-2.45.56Zm-3.38-11.25a3.63 3.63 0 0 0-1.78.4L56 137c-.2.11-.53.35-.53.67s.33.73.88 1l7.51 4.34a4.81 4.81 0 0 0 4.22.2l5.12-3c.19-.11.52-.35.52-.68s-.32-.72-.87-1l-7.52-4.34a5.06 5.06 0 0 0-2.47-.54Z"/><path class="cls-3" d="M73.49 131v-.18a11.84 11.84 0 0 0-5.3-8.91l-.38-.21a13.19 13.19 0 0 0-1.34-.45 10.11 10.11 0 0 0-8.1 1.46.52.52 0 0 0-.15.7l9.68 15.91a.53.53 0 0 0 .76.16 11.53 11.53 0 0 0 4.46-6.29 10.13 10.13 0 0 0 .37-2.19Z"/><path class="cls-1" d="M68.34 140.21a.83.83 0 0 1-.22 0 1.14 1.14 0 0 1-.76-.52l-9.68-15.92a1.14 1.14 0 0 1 .32-1.57 10.74 10.74 0 0 1 8.6-1.54 11 11 0 0 1 1.42.48l.45.24a12.45 12.45 0 0 1 5.6 9.42.75.75 0 0 1 0 .23 10.22 10.22 0 0 1-.43 2.42A12.1 12.1 0 0 1 69 140a1.14 1.14 0 0 1-.66.21Zm-9.55-17 9.58 15.75a11 11 0 0 0 4.15-5.9 9.58 9.58 0 0 0 .35-2v-.05a11.2 11.2 0 0 0-5-8.49l-.36-.19a9.8 9.8 0 0 0-1.16-.39 9.42 9.42 0 0 0-7.56 1.24Z"/><path class="cls-1" d="m67.33 131.57-2.77 1.8v.49l3.33 5.47a.53.53 0 0 0 .76.16 11.53 11.53 0 0 0 4.46-6.29 10.13 10.13 0 0 0 .38-2.19v-.18A6.06 6.06 0 0 0 73 129a23.43 23.43 0 0 1-3.28 3.29Z"/><path class="cls-1" d="M68.34 140.21a.83.83 0 0 1-.22 0 1.14 1.14 0 0 1-.76-.52L63.94 134v-1l3.28-2.14 2.35.67a20.4 20.4 0 0 0 2.92-2.95l.73-1 .37 1.2c.07.21.13.38.18.54a4.12 4.12 0 0 1 .31 1.47.75.75 0 0 1 0 .23 10.16 10.16 0 0 1-.43 2.42A12.1 12.1 0 0 1 69 140a1.14 1.14 0 0 1-.66.21Zm-3.15-6.51 3.18 5.23a11 11 0 0 0 4.15-5.9 9.16 9.16 0 0 0 .35-2.05v-.12a3.25 3.25 0 0 0-.08-.63 31.35 31.35 0 0 1-2.66 2.51l-.25.2-2.44-.7Z"/><path class="cls-2" d="m68.18 121.92-.38-.21a13.19 13.19 0 0 0-1.34-.45 10.06 10.06 0 0 0-7.95 1.36.68.68 0 0 0-.21.94l2.8 4.61a.18.18 0 0 0 .09.08l2.41.9a.18.18 0 0 0 .2-.06l1.33-1.76.93-1.61h.06c.24-.16 1.79-1.18 3.62-2.22a.17.17 0 0 0 0-.28 8.15 8.15 0 0 0-1.56-1.3Z"/><path class="cls-1" d="M63.66 129.77a.84.84 0 0 1-.27 0l-2.42-.9a.9.9 0 0 1-.39-.33l-2.81-4.62a1.3 1.3 0 0 1 .41-1.78 10.7 10.7 0 0 1 8.44-1.44 11 11 0 0 1 1.42.48l.45.24a9.44 9.44 0 0 1 1.73 1.33.8.8 0 0 1 .24.67.81.81 0 0 1-.4.6c-1.62.93-3.06 1.85-3.49 2.14l-.89 1.51-1.39 1.83a.76.76 0 0 1-.63.27Zm-2.11-2.05 2 .73 1.09-1.45 1-1.68.17-.14c.27-.17 1.57-1 3.13-1.93a6.73 6.73 0 0 0-1-.76l-.36-.19a9.8 9.8 0 0 0-1.16-.39 9.47 9.47 0 0 0-7.5 1.27.07.07 0 0 0 0 .1Z"/><path class="cls-3" d="M70.17 135.34c0 2.29-.83 3.88-2.17 4.58s-4.42.12-6.28-.95A11.12 11.12 0 0 1 56 128.79c0-1.78.8-4.64 1.65-5.48 1.27-1.25 3.31-1.36 5.61 0a15.4 15.4 0 0 1 6.91 12.03Z"/><path class="cls-1" d="M66.43 140.82a11.06 11.06 0 0 1-5-1.32 11.73 11.73 0 0 1-6.08-10.71c0-1.86.82-4.91 1.84-5.92 1.52-1.5 3.89-1.54 6.35-.13a16.11 16.11 0 0 1 7.27 12.6c0 2.43-.91 4.3-2.5 5.13a4.23 4.23 0 0 1-1.88.35Zm-6.33-17.88a2.87 2.87 0 0 0-2.07.81c-.68.68-1.47 3.37-1.47 5a10.43 10.43 0 0 0 5.44 9.68c1.83 1.06 4.75 1.43 5.69.94 1.18-.62 1.83-2.05 1.83-4a14.73 14.73 0 0 0-6.65-11.53 5.75 5.75 0 0 0-2.77-.9Z"/><path class="cls-2" d="M66.64 135.64c0 3.42-2.4 4.8-5.36 3.09a11.82 11.82 0 0 1-5.37-9.28c0-3.42 2.4-4.81 5.37-3.1a11.86 11.86 0 0 1 5.36 9.29Z"/><path class="cls-1" d="M63.67 140.09a5.51 5.51 0 0 1-2.7-.82 12.55 12.55 0 0 1-5.67-9.82 3.87 3.87 0 0 1 6.29-3.64 12.59 12.59 0 0 1 5.67 9.83 4.36 4.36 0 0 1-1.88 4 3.43 3.43 0 0 1-1.71.45Zm-4.79-13.86a2.11 2.11 0 0 0-1.09.28 3.2 3.2 0 0 0-1.26 2.94 11.19 11.19 0 0 0 5.06 8.75 3.16 3.16 0 0 0 3.17.37 3.18 3.18 0 0 0 1.24-2.93 11.18 11.18 0 0 0-5-8.75 4.22 4.22 0 0 0-2.12-.66Z"/><path class="cls-1" transform="rotate(-29.34 61.869 135.219)" d="M60.53 134.62h2.71v1.24h-2.71z"/><path class="cls-1" transform="rotate(-30.22 61.354 132.516)" d="M59.09 131.89h4.5v1.24h-4.5z"/><path class="cls-1" transform="rotate(-28.64 60.348 130.238)" d="M59.26 129.6h2.15v1.24h-2.15z"/><path class="cls-3" d="M66.39 149.75v-.95a4.51 4.51 0 0 0 1.75-.42l3.86-2.27.48.83-3.93 2.27a5.57 5.57 0 0 1-2.16.54ZM130.18 171.86l-14-2.71-5.37.71v5a2 2 0 0 0 1.17 1.57l7.52 4.34a5.4 5.4 0 0 0 4.83.2l5.12-3a1.4 1.4 0 0 0 .82-1.2v-4.9a.07.07 0 0 0-.09-.01Z"/><path class="cls-1" d="M122.17 182.07a6.19 6.19 0 0 1-3-.77l-7.56-4.3a2.59 2.59 0 0 1-1.48-2.09v-5.51l.59-.11 5.47-.72h.11l14.51 2.8V176.83a2 2 0 0 1-1.13 1.74l-5.12 2.95a4.91 4.91 0 0 1-2.39.55Zm-10.81-11.66v4.45c0 .34.32.72.86 1l7.52 4.34a4.73 4.73 0 0 0 4.21.2l5.12-3a.88.88 0 0 0 .51-.68v-4.42l-13.46-2.6Z"/><path class="cls-1" d="M121.83 170.25v11.19a4.51 4.51 0 0 0 2.44-.47l5.12-2.95a1.42 1.42 0 0 0 .82-1.21v-4.89Z"/><path class="cls-1" d="M122.18 182.07h-.97V169.5l9.59 1.86V176.81a2 2 0 0 1-1.13 1.74l-5.12 3a5 5 0 0 1-2.37.52Zm.26-11.07v9.83a3.5 3.5 0 0 0 1.52-.39l5.12-3a.86.86 0 0 0 .51-.67v-4.42Z"/><path class="cls-2" d="m129.39 173-5.12 3a5.4 5.4 0 0 1-4.83-.2l-7.52-4.34c-1.43-.83-1.59-2.08-.35-2.79l5.12-3a5.4 5.4 0 0 1 4.83.2l7.52 4.34c1.43.85 1.59 2.1.35 2.79Z"/><path class="cls-1" d="M122.17 177.08a6.19 6.19 0 0 1-3-.77l-7.56-4.31a2.57 2.57 0 0 1-1.49-2.11 2.05 2.05 0 0 1 1.14-1.75l5.12-3a6 6 0 0 1 5.45.2l7.52 4.34a2.57 2.57 0 0 1 1.49 2.11 2 2 0 0 1-1.14 1.75l-5.12 2.95a4.91 4.91 0 0 1-2.41.59Zm-3.39-11.25a3.66 3.66 0 0 0-1.78.4l-5.12 3c-.2.12-.53.36-.53.68s.33.73.88 1l7.52 4.34a4.73 4.73 0 0 0 4.21.2l5.12-2.95c.19-.12.53-.35.53-.68s-.33-.73-.88-1l-7.52-4.34a5 5 0 0 0-2.43-.65Z"/><path class="cls-3" d="M129.41 163.18v-.17a11.82 11.82 0 0 0-5.3-8.91l-.38-.21a9.49 9.49 0 0 0-1.34-.45 10.12 10.12 0 0 0-8.1 1.45.53.53 0 0 0-.15.71l9.68 15.91a.53.53 0 0 0 .76.16 11.57 11.57 0 0 0 4.46-6.29 10.29 10.29 0 0 0 .37-2.2Z"/><path class="cls-1" d="M124.26 172.38a.82.82 0 0 1-.22 0 1.16 1.16 0 0 1-.76-.53l-9.68-15.91a1.14 1.14 0 0 1 .34-1.54 10.67 10.67 0 0 1 8.6-1.54 10 10 0 0 1 1.41.48l.46.24a12.48 12.48 0 0 1 5.6 9.38 1.84 1.84 0 0 1 0 .26 10.56 10.56 0 0 1-.43 2.43 12.14 12.14 0 0 1-4.67 6.54 1.13 1.13 0 0 1-.65.19Zm-9.55-17 9.58 15.76a11 11 0 0 0 4.15-5.9 9.07 9.07 0 0 0 .35-2.05V163a11.11 11.11 0 0 0-5-8.4l-.36-.19a8.29 8.29 0 0 0-1.16-.39 9.46 9.46 0 0 0-7.56 1.33Z"/><path class="cls-1" d="m123.25 163.75-2.77 1.8v.45l3.33 5.47a.53.53 0 0 0 .76.16 11.57 11.57 0 0 0 4.46-6.29 10.29 10.29 0 0 0 .38-2.2v-.17a5.92 5.92 0 0 0-.47-1.86 24 24 0 0 1-3.28 3.29Z"/><path class="cls-1" d="M124.26 172.38a.82.82 0 0 1-.22 0 1.16 1.16 0 0 1-.76-.53l-3.42-5.62v-1l3.29-2.13 2.35.67a20.93 20.93 0 0 0 2.92-2.95l.73-1 .37 1.21.18.53a4.33 4.33 0 0 1 .31 1.44 1.84 1.84 0 0 1 0 .26 10.69 10.69 0 0 1-.43 2.43 12.14 12.14 0 0 1-4.67 6.54 1.13 1.13 0 0 1-.65.15Zm-3.15-6.5 3.18 5.23a11 11 0 0 0 4.15-5.9 9.16 9.16 0 0 0 .35-2.05V163a3.24 3.24 0 0 0-.08-.62 28.89 28.89 0 0 1-2.66 2.5l-.25.21-2.44-.7Z"/><path class="cls-2" d="m124.1 154.1-.38-.21a9.49 9.49 0 0 0-1.34-.45 10.11 10.11 0 0 0-7.95 1.35.69.69 0 0 0-.21 1l2.8 4.61a.16.16 0 0 0 .09.07l2.41.9a.16.16 0 0 0 .2 0l1.33-1.76.93-1.6h.06c.24-.16 1.79-1.18 3.62-2.22a.17.17 0 0 0 0-.28 7.79 7.79 0 0 0-1.56-1.41Z"/><path class="cls-1" d="M119.58 162a.58.58 0 0 1-.26 0l-2.43-.9a.74.74 0 0 1-.4-.34l-2.8-4.6a1.32 1.32 0 0 1 .41-1.79 10.75 10.75 0 0 1 8.44-1.43 10 10 0 0 1 1.41.48l.46.24a9.44 9.44 0 0 1 1.73 1.33.79.79 0 0 1 .24.67.78.78 0 0 1-.4.59c-1.65.95-3.06 1.86-3.5 2.14l-1 1.62-1.31 1.73a.81.81 0 0 1-.59.26Zm-2.11-2 2 .73 1.13-1.49 1-1.69.18-.14c.25-.16 1.53-1 3.12-1.93a7.41 7.41 0 0 0-1.06-.75l-.36-.19a8.29 8.29 0 0 0-1.16-.39 9.53 9.53 0 0 0-7.5 1.26.08.08 0 0 0 0 .11Z"/><path class="cls-3" d="M126.09 167.52c0 2.29-.83 3.88-2.17 4.57s-4.42.13-6.28-.94a11.12 11.12 0 0 1-5.77-10.15c0-1.79.8-4.64 1.65-5.48 1.27-1.25 3.31-1.36 5.61 0a15.4 15.4 0 0 1 6.96 12Z"/><path class="cls-1" d="M122.35 173a11.06 11.06 0 0 1-5-1.32 11.74 11.74 0 0 1-6.1-10.68c0-1.86.82-4.92 1.84-5.92 1.52-1.5 3.89-1.55 6.35-.13a16.09 16.09 0 0 1 7.27 12.6c0 2.43-.91 4.3-2.5 5.12a4.09 4.09 0 0 1-1.86.33ZM116 155.12a2.87 2.87 0 0 0-2.07.81c-.68.68-1.47 3.36-1.47 5a10.44 10.44 0 0 0 5.47 9.64c1.83 1.06 4.76 1.42 5.69.94 1.18-.62 1.83-2.05 1.83-4a14.73 14.73 0 0 0-6.63-11.51 5.75 5.75 0 0 0-2.82-.88Z"/><path class="cls-2" d="M122.56 167.82c0 3.41-2.4 4.8-5.36 3.09a11.87 11.87 0 0 1-5.37-9.29c0-3.42 2.41-4.8 5.37-3.09a11.86 11.86 0 0 1 5.36 9.29Z"/><path class="cls-1" d="M119.59 172.26a5.49 5.49 0 0 1-2.7-.81 12.57 12.57 0 0 1-5.67-9.83 3.87 3.87 0 0 1 6.29-3.63 12.58 12.58 0 0 1 5.67 9.83 4.35 4.35 0 0 1-1.88 4 3.35 3.35 0 0 1-1.71.44Zm-4.79-13.85a2.11 2.11 0 0 0-1.09.28 3.19 3.19 0 0 0-1.26 2.93 11.19 11.19 0 0 0 5.06 8.76 2.67 2.67 0 0 0 4.43-2.56 11.21 11.21 0 0 0-5-8.76 4.3 4.3 0 0 0-2.14-.65Z"/><path class="cls-1" transform="rotate(-29.34 117.809 167.415)" d="M116.45 166.8h2.71v1.24h-2.71z"/><path class="cls-1" transform="rotate(-30.22 117.275 164.701)" d="M115.01 164.07h4.5v1.24h-4.5z"/><path class="cls-1" transform="rotate(-28.64 116.27 162.414)" d="M115.18 161.78h2.15v1.24h-2.15z"/><path class="cls-3" d="M122.31 181.92v-.95a4.47 4.47 0 0 0 1.75-.41l3.93-2.27.48.82-3.93 2.27a5.36 5.36 0 0 1-2.23.54Z"/><path class="cls-1" d="m157.39 198.17-1.19.69a.52.52 0 0 1-.47 0l-1.12-.65c-.14-.08-.16-.2 0-.27l1.19-.69a.54.54 0 0 1 .48 0l1.11.65c.1.1.12.2 0 .27ZM160.15 199.77l-1.19.68a.52.52 0 0 1-.47 0l-1.12-.64c-.14-.08-.16-.21 0-.28l1.18-.68a.54.54 0 0 1 .48 0l1.11.64c.12.08.13.21.01.28ZM157.24 201.45l-1.19.68a.52.52 0 0 1-.47 0l-1.12-.64c-.14-.08-.15-.21 0-.28l1.18-.68a.54.54 0 0 1 .48 0l1.12.64c.11.08.12.21 0 .28ZM162.91 201.36l-1.19.69a.52.52 0 0 1-.47 0l-1.12-.65c-.14-.08-.16-.2 0-.27l1.18-.69a.54.54 0 0 1 .48 0l1.12.65c.09.08.09.2 0 .27ZM160 203l-1.19.69a.52.52 0 0 1-.47 0l-1.12-.65c-.14-.08-.15-.2 0-.27l1.18-.69a.54.54 0 0 1 .48 0l1.12.65c.11.12.12.27 0 .27ZM165.83 203.05l-1.19.68a.52.52 0 0 1-.47 0l-1.12-.64c-.14-.08-.15-.21 0-.28l1.18-.68a.54.54 0 0 1 .48 0l1.12.64c.11.09.17.23 0 .28ZM162.92 204.73l-1.18.68a.54.54 0 0 1-.48 0l-1.12-.64c-.14-.08-.15-.21 0-.28l1.19-.68a.52.52 0 0 1 .47 0l1.12.64c.08.09.08.21 0 .28ZM168.59 204.64l-1.18.69a.54.54 0 0 1-.48 0l-1.12-.65c-.14-.08-.15-.2 0-.27l1.19-.69a.52.52 0 0 1 .47 0l1.12.65c.11.08.12.2 0 .27ZM165.68 206.32l-1.18.69a.54.54 0 0 1-.48 0l-1.12-.65c-.14-.08-.15-.2 0-.27l1.19-.69a.52.52 0 0 1 .47 0l1.12.65c.11.08.12.2 0 .27ZM171.35 206.24l-1.18.68a.54.54 0 0 1-.48 0l-1.12-.64c-.14-.08-.15-.21 0-.28l1.19-.68a.52.52 0 0 1 .47 0l1.12.64c.11.04.12.21 0 .28ZM168.44 207.92l-1.18.68a.54.54 0 0 1-.48 0l-1.12-.64c-.14-.09-.15-.21 0-.28l1.19-.68a.52.52 0 0 1 .47 0l1.12.64c.11.08.13.21 0 .28ZM148.94 193.21l-1.18.69a.54.54 0 0 1-.48 0l-1.11-.65c-.15-.08-.16-.2 0-.27l1.19-.69a.52.52 0 0 1 .47 0l1.12.65c.1.06.12.2-.01.27ZM151.87 194.9l-1.19.69a.52.52 0 0 1-.47 0l-1.12-.65c-.14-.08-.16-.2 0-.27l1.19-.69a.52.52 0 0 1 .47 0l1.12.65c.13.08.13.2 0 .27ZM149 196.58l-1.19.68a.49.49 0 0 1-.47 0l-1.12-.65c-.14-.08-.16-.2 0-.27l1.19-.69a.54.54 0 0 1 .48 0l1.11.65c.06.09.08.21 0 .28ZM154.63 196.49l-1.19.69a.52.52 0 0 1-.47 0l-1.12-.65c-.14-.08-.16-.2 0-.27l1.19-.68a.49.49 0 0 1 .47 0l1.12.65c.1.07.12.19 0 .26ZM151.72 198.17l-1.19.69a.52.52 0 0 1-.47 0l-1.12-.65c-.14-.08-.16-.2 0-.27l1.18-.69a.54.54 0 0 1 .48 0l1.11.65c.11.1.13.2.01.27ZM154.48 199.77l-1.19.68a.52.52 0 0 1-.47 0l-1.12-.64c-.14-.08-.16-.21 0-.28l1.18-.68a.54.54 0 0 1 .48 0l1.12.64c.11.08.12.21 0 .28ZM174.27 207.92l-1.18.69a.54.54 0 0 1-.48 0l-1.11-.65c-.15-.08-.16-.2 0-.27l1.19-.69a.52.52 0 0 1 .47 0l1.12.65c.1.08.12.2-.01.27ZM171.37 209.6l-1.19.69a.54.54 0 0 1-.48 0l-1.11-.65c-.14-.08-.16-.2 0-.27l1.19-.69a.52.52 0 0 1 .47 0l1.12.65c.1.08.12.2 0 .27ZM177.18 206.24l-1.18.69a.54.54 0 0 1-.48 0l-1.12-.65c-.14-.08-.15-.2 0-.27l1.19-.69a.52.52 0 0 1 .47 0l1.12.65c.11.08.12.2 0 .27ZM180.09 204.56l-1.18.69a.54.54 0 0 1-.48 0l-1.12-.65c-.14-.08-.15-.2 0-.27l1.18-.68a.51.51 0 0 1 .48 0l1.12.65c.11.07.12.19 0 .26ZM183 202.89l-1.19.68a.52.52 0 0 1-.47 0l-1.12-.65c-.14-.08-.15-.2 0-.27l1.18-.68a.51.51 0 0 1 .48 0l1.12.64c.11.08.12.2 0 .28ZM185.91 201.21l-1.19.68a.52.52 0 0 1-.47 0l-1.12-.64c-.14-.09-.16-.21 0-.28l1.18-.68a.54.54 0 0 1 .48 0l1.12.64c.09.07.09.21 0 .28ZM188.82 199.53l-1.19.68a.52.52 0 0 1-.47 0l-1.12-.64c-.14-.09-.16-.21 0-.28l1.19-.68a.54.54 0 0 1 .48 0l1.11.64c.1.08.12.21 0 .28ZM191.73 197.85l-1.19.68a.52.52 0 0 1-.47 0l-1.12-.64c-.14-.08-.16-.21 0-.28l1.19-.68a.52.52 0 0 1 .47 0l1.12.64c.1.08.12.21 0 .28ZM194.64 196.17l-1.19.68a.54.54 0 0 1-.48 0l-1.11-.64c-.14-.08-.16-.21 0-.28l1.19-.68a.52.52 0 0 1 .47 0l1.12.64c.1.11.12.21 0 .28ZM197.54 194.49l-1.18.68a.54.54 0 0 1-.48 0l-1.12-.64c-.14-.08-.15-.21 0-.28l1.19-.68a.52.52 0 0 1 .47 0l1.12.64c.11.09.13.21 0 .28ZM200.45 192.81l-1.18.68a.51.51 0 0 1-.48 0l-1.12-.64c-.14-.08-.15-.21 0-.28l1.19-.68a.52.52 0 0 1 .47 0l1.12.64c.11.09.12.21 0 .28ZM177 209.52l-1.19.68a.54.54 0 0 1-.48 0l-1.11-.64c-.14-.08-.16-.21 0-.28l1.19-.68a.52.52 0 0 1 .47 0l1.12.64c.14.08.16.21 0 .28ZM179.94 207.84l-1.18.68a.54.54 0 0 1-.48 0l-1.12-.64c-.14-.08-.15-.21 0-.28l1.19-.68a.52.52 0 0 1 .47 0l1.12.64c.11.08.13.21 0 .28ZM182.85 206.16l-1.18.68a.54.54 0 0 1-.48 0l-1.12-.64c-.14-.08-.15-.21 0-.28l1.19-.68a.52.52 0 0 1 .47 0l1.12.64c.15.12.15.21 0 .28ZM185.76 204.48l-1.19.68a.49.49 0 0 1-.47 0l-1.1-.66c-.14-.08-.15-.2 0-.28l1.18-.68a.54.54 0 0 1 .48 0l1.12.65c.09.1.1.22-.02.29ZM188.67 202.8l-1.19.68a.52.52 0 0 1-.47 0l-1.12-.65c-.14-.08-.15-.2 0-.27l1.18-.69a.54.54 0 0 1 .48 0l1.12.65c.11.09.12.21 0 .28ZM191.58 201.12l-1.19.69a.52.52 0 0 1-.47 0l-1.12-.65c-.14-.08-.16-.2 0-.27l1.18-.69a.54.54 0 0 1 .48 0l1.11.65c.12.08.13.2.01.27ZM194.49 199.44l-1.19.69a.52.52 0 0 1-.47 0l-1.12-.65c-.14-.08-.16-.2 0-.27l1.19-.69a.54.54 0 0 1 .48 0l1.11.65c.1.08.12.2 0 .27ZM197.4 197.76l-1.19.69a.52.52 0 0 1-.47 0l-1.12-.65c-.14-.08-.16-.2 0-.27l1.19-.69a.52.52 0 0 1 .47 0l1.12.65c.1.08.12.2 0 .27ZM200.31 196.08l-1.19.69a.54.54 0 0 1-.48 0l-1.11-.65c-.14-.08-.16-.2 0-.27l1.19-.69a.52.52 0 0 1 .47 0l1.12.65c.1.08.12.19 0 .27ZM197.6 188.1h-1.45l-20.86-12a4.66 4.66 0 0 0-4.21-.18l-21 12.12h-.05l-1.56.08a.1.1 0 0 0-.1.11v1.35a1.66 1.66 0 0 0 1 1.45l21.38 12.34a4.71 4.71 0 0 0 4.22.18l22-12.7a1.27 1.27 0 0 0 .71-1v-1Z"/><path class="cls-1" d="M173.15 204.56a5.51 5.51 0 0 1-2.69-.68l-21.38-12.35a2.39 2.39 0 0 1-1.3-1.65v-1.68a.73.73 0 0 1 .69-.73l1.44-.07 20.89-12.06a5.27 5.27 0 0 1 4.83.17l20.74 12h1.79l.19 1.33v1a1.92 1.92 0 0 1-1 1.51l-22 12.69a4.35 4.35 0 0 1-2.2.52ZM149 189.23v.35c0 .27.25.6.71.86l21.38 12.35a4.07 4.07 0 0 0 3.6.17l22-12.69a.73.73 0 0 0 .4-.5V188.7h-1l-.2-.1-20.86-12a4.06 4.06 0 0 0-3.6-.17l-21.17 12.17h-.2l-1.08.06Z"/><path class="cls-2" d="m197 189.23-22 12.7a4.71 4.71 0 0 1-4.22-.18l-21.38-12.34c-1.25-.72-1.38-1.81-.3-2.44l22-12.69a4.65 4.65 0 0 1 4.21.17l21.38 12.35c1.23.72 1.37 1.81.31 2.43Z"/><path class="cls-1" d="M173.15 203a5.5 5.5 0 0 1-2.69-.67l-21.38-12.35a2.33 2.33 0 0 1-1.34-1.91 1.84 1.84 0 0 1 1-1.59l22-12.7a5.3 5.3 0 0 1 4.83.18l21.43 12.3a2.33 2.33 0 0 1 1.34 1.91 1.85 1.85 0 0 1-1 1.6l-22 12.69a4.33 4.33 0 0 1-2.19.54Zm-.25-28.49a3.25 3.25 0 0 0-1.52.34l-22 12.7c-.16.09-.42.28-.42.52s.19.53.72.84l21.38 12.35a4.07 4.07 0 0 0 3.6.17l22-12.69c.15-.09.42-.28.42-.53s-.19-.53-.73-.84L175 175a4.28 4.28 0 0 0-2.1-.53Z"/><path class="cls-3" d="M172.56 202.51h.95v1.42h-.95zM149.79 190.11h.95v1.42h-.95zM152.82 191.72h.95v1.42h-.95zM195.38 189.97h.95v1.42h-.95zM188.28 184.42l-.06-.28L179 149.3h-11.86l-9.33 35.12v.13c-.87 2.9.59 5.86 4.32 8.1 6.05 3.63 15.85 3.63 21.9 0 3.7-2.24 5.12-5.34 4.25-8.23Z"/><path class="cls-1" d="M173.05 196a22.41 22.41 0 0 1-11.27-2.8c-3.9-2.34-5.57-5.55-4.59-8.81v-.09l9.46-35.6h12.76l9.45 35.58c1 3.28-.73 6.62-4.56 8.92a22.41 22.41 0 0 1-11.25 2.8Zm-5.43-46.06-9.24 34.77c-.81 2.71.66 5.4 4 7.43 5.86 3.52 15.4 3.52 21.26 0 3.33-2 4.83-4.81 4-7.53l-.07-.3-9.14-34.37Z"/><ellipse class="cls-2" cx="173.05" cy="149.3" rx="5.91" ry="3.55"/><path class="cls-1" d="M173.05 153.47a9 9 0 0 1-4.5-1.13 3.29 3.29 0 0 1 0-6.08 9.51 9.51 0 0 1 9 0 3.3 3.3 0 0 1 0 6.08 9 9 0 0 1-4.5 1.13Zm0-7.11a7.62 7.62 0 0 0-3.86 1 2.09 2.09 0 0 0 0 4 8.3 8.3 0 0 0 7.72 0 2.09 2.09 0 0 0 0-4 7.62 7.62 0 0 0-3.86-1Z"/><ellipse class="cls-3" cx="173.03" cy="149.23" rx="3.74" ry="1.74"/><path class="cls-1" d="M173 151.59a7 7 0 0 1-2.9-.57c-1.26-.59-1.45-1.37-1.45-1.79s.19-1.2 1.45-1.79a7.69 7.69 0 0 1 5.81 0c1.26.59 1.45 1.38 1.45 1.79s-.19 1.2-1.45 1.79a7.09 7.09 0 0 1-2.91.57Zm0-3.48a5.91 5.91 0 0 0-2.38.45c-.51.24-.73.51-.73.67s.22.43.73.67a6.52 6.52 0 0 0 4.76 0c.51-.24.74-.51.74-.67s-.23-.43-.74-.67a5.84 5.84 0 0 0-2.38-.45Z"/><path class="cls-2" d="m183.19 165.21-2-7.39c.32 1.47-.45 3-2.34 4.14a12.42 12.42 0 0 1-11.64 0c-1.89-1.13-2.66-2.67-2.34-4.14l-1.38 5.23-.64 2.45c-.55 1.92.4 4 2.87 5.45a15.65 15.65 0 0 0 14.66 0c2.62-1.55 3.5-3.7 2.81-5.74Z"/><path class="cls-1" d="M173.07 173.38a15.06 15.06 0 0 1-7.64-1.9c-2.63-1.57-3.81-3.87-3.16-6.15l2.14-8.13h1.25l-.16.75c-.28 1.26.46 2.54 2 3.48a11.75 11.75 0 0 0 11 0c1.58-1 2.32-2.22 2-3.48l-.16-.75h1.24l.13.46 2 7.37c.81 2.41-.34 4.82-3.06 6.45a15.13 15.13 0 0 1-7.58 1.9Zm-8.26-12.86-1.35 5.13c-.49 1.75.45 3.48 2.6 4.77a14.93 14.93 0 0 0 14 0c2.23-1.33 3.15-3.16 2.52-5l-1.3-4.86a6.19 6.19 0 0 1-2.1 2 13.09 13.09 0 0 1-12.28 0 6.07 6.07 0 0 1-2.09-2.04Z"/><path class="cls-2" d="m187.31 180.77-.1-.39v-.06l-1.83-6.76c.43 2.19-.74 4.47-3.54 6.15-4.85 2.92-12.72 2.92-17.57 0-2.8-1.68-4-4-3.55-6.15l-1.88 7.21c-.61 2.6.73 5.33 4.06 7.33 5.63 3.37 14.75 3.37 20.37 0 3.31-2 4.65-4.73 4.04-7.33Z"/><path class="cls-1" d="M173.07 191.23a20.92 20.92 0 0 1-10.51-2.6c-3.12-1.88-4.74-4.54-4.47-7.24H158l.19-.78 2-7.67h1.23l-.14.74c-.4 2 .79 4 3.26 5.5 4.66 2.81 12.26 2.81 16.93 0 2.46-1.48 3.65-3.48 3.25-5.5l-.14-.74h1.22l.14.46 2.16 8h-.1c.28 2.7-1.35 5.36-4.47 7.24a20.91 20.91 0 0 1-10.46 2.59Zm-13.58-10.64-.07.32c-.57 2.45.81 4.87 3.78 6.66 5.44 3.26 14.29 3.26 19.73 0 3-1.79 4.35-4.21 3.78-6.66l-.09-.37-1.05-3.86a8.3 8.3 0 0 1-3.43 3.56c-5 3-13.19 3-18.21 0a8.37 8.37 0 0 1-3.42-3.52Z"/><path class="cls-2" transform="rotate(-77.59 165.812 169.345)" d="M151.39 168.73h28.85v1.24h-28.85z"/><path class="cls-3" transform="rotate(-77.59 166.862 164.588)" d="M165.52 163.97h2.66v1.24h-2.66z"/><path class="cls-3" transform="rotate(-77.59 163.033 181.999)" d="M161.56 181.38h2.94v1.24h-2.94z"/><path class="cls-1" d="M170.47 148c-1.37.64-1.37 1.68 0 2.33a5.28 5.28 0 0 0 1 .33l.37-3a5 5 0 0 0-1.37.34Z"/><path class="cls-1" d="m172 151.41-.66-.14a5.77 5.77 0 0 1-1.17-.37c-1.21-.57-1.39-1.32-1.39-1.73s.18-1.16 1.39-1.72a5.92 5.92 0 0 1 1.58-.44l.8-.12Zm-1.3-2.84c-.54.25-.68.5-.68.6s.14.36.68.61l.24.1.18-1.47a3.36 3.36 0 0 0-.42.16Z"/><path class="cls-1" transform="rotate(-12.83 179.758 162.74)" d="M179.17 159h1.24v7.51h-1.24z"/><path class="cls-3" d="m294.62 145.16-21.44-12.38a3.3 3.3 0 0 0-3.16-.38l-.84.51-6.18 3.81a.07.07 0 0 0 0 .09c.31.65 3.22 6.74 3.48 7.86.11.47 1 5.13 2.08 10.55V158a9.62 9.62 0 0 0 1.44 4.7c1.1 5.66 2 10.48 2.05 10.61l3.17 7.5a.07.07 0 0 0 .11 0l7.27-4.23a.08.08 0 0 0 0-.09l-.54-1.53a18.92 18.92 0 0 1-.3-2.37l9.24 10.29a.08.08 0 0 0 .1 0l6.76-4.18.1-.06a3.32 3.32 0 0 0 1.28-3v-22.38a10.37 10.37 0 0 0-4.62-8.1Z"/><path class="cls-1" d="M291.1 183.62a.8.8 0 0 1-.59-.26l-7.74-8.61v.07l.51 1.44a.78.78 0 0 1-.35 1l-7.53 4.39-.37-.09a.78.78 0 0 1-.48-.44l-3.22-7.65-2-10.51a10 10 0 0 1-1.48-5v-2.66c-1.22-6.25-2-10.06-2.06-10.47-.18-.74-1.91-4.52-3.44-7.71a.8.8 0 0 1 .31-1l7-4.31a4 4 0 0 1 3.88.37L295 144.54a11.14 11.14 0 0 1 5 8.72v22.44a4 4 0 0 1-1.63 3.56.41.41 0 0 1-.13.08l-6.73 4.16a.81.81 0 0 1-.41.12Zm-10.13-13L291.22 182l6.41-4a2.65 2.65 0 0 0 .95-2.35v-22.39a9.7 9.7 0 0 0-4.32-7.48l-21.44-12.38a2.63 2.63 0 0 0-2.48-.36l-6.47 4c.85 1.79 3 6.44 3.29 7.49.13.58 1.36 6.87 2.08 10.57v2.9a8.89 8.89 0 0 0 1.33 4.34l.08.13v.17l2 10.48 2.87 6.77 6.18-3.6-.39-1.13a18.46 18.46 0 0 1-.31-2.48Z"/><path class="cls-2" d="m294.6 145.16-20.1-11.56-10.1 6.34 21.51 11.32 4.52.72 7-4.13a9.11 9.11 0 0 0-2.83-2.69Z"/><path class="cls-1" d="m290.57 152.72-5-.82L263 140l11.52-7.23L295 144.54a9.72 9.72 0 0 1 3 2.9l.44.63Zm-4.43-2.14 4.15.66 6-3.6a7.67 7.67 0 0 0-2.1-1.86l-19.72-11.35-8.7 5.46ZM292.17 155.67s-8.68 2.05-9.24 2.26a112 112 0 0 0-11.87 10.24c.57 3 1 5 1 5.11l3.17 7.5a.07.07 0 0 0 .11 0l7.27-4.23a.08.08 0 0 0 0-.09l-.54-1.53a18.92 18.92 0 0 1-.3-2.37l9.23 10.32a.08.08 0 0 0 .1 0l6.76-4.18.1-.06a3.32 3.32 0 0 0 1.28-3v-22.38a7.73 7.73 0 0 0-.2-1.7Z"/><path class="cls-3" transform="rotate(-31.17 296.081 156.717)" d="M293.03 156.23h6.01v.95h-6.01z"/><path class="cls-3" transform="rotate(-31.17 295.917 176.842)" d="M292.86 176.36h6.01v.95h-6.01z"/><path class="cls-3" d="M287.77 149.44 266.29 137c-2.56-1.48-4.64-.28-4.64 2.67v22.5a10.27 10.27 0 0 0 4.64 8l2.44 1.41a2.08 2.08 0 0 1 .91 1.38 12.15 12.15 0 0 0 4.71 7.8c.68.51 1.22.08 1-.79a18.41 18.41 0 0 1-.5-3.78c0-.59.42-.82.93-.53l12 6.91c2.56 1.48 4.63.28 4.63-2.68v-22.42a10.24 10.24 0 0 0-4.64-8.03Z"/><path class="cls-1" d="M289.84 184a4.89 4.89 0 0 1-2.43-.74l-11.82-6.82a18 18 0 0 0 .47 3.45 1.52 1.52 0 0 1-.51 1.69 1.42 1.42 0 0 1-1.63-.16 12.75 12.75 0 0 1-5-8.27 1.38 1.38 0 0 0-.56-.87l-2.45-1.42a10.86 10.86 0 0 1-5-8.64v-22.5a3.51 3.51 0 0 1 5.7-3.29l21.48 12.4a10.88 10.88 0 0 1 5 8.65V180a3.92 3.92 0 0 1-1.71 3.62 3.11 3.11 0 0 1-1.54.38Zm-14.46-9.1a1.54 1.54 0 0 1 .78.22l12 6.91a2.14 2.14 0 0 0 3.57-2.06v-22.5a9.49 9.49 0 0 0-4.28-7.42l-21.48-12.4a2.14 2.14 0 0 0-3.57 2.06v22.5a9.47 9.47 0 0 0 4.28 7.41l2.45 1.41a2.75 2.75 0 0 1 1.25 1.89 11.37 11.37 0 0 0 4.33 7.26 19 19 0 0 1-.51-3.92 1.31 1.31 0 0 1 .62-1.21 1.15 1.15 0 0 1 .56-.16Z"/><ellipse class="cls-3" cx="277.03" cy="159.83" rx="8.01" ry="13.87" transform="rotate(-30 277.033 159.83)"/><path class="cls-1" d="M281.41 173a9.33 9.33 0 0 1-4.62-1.41c-5.54-3.2-10.05-11-10.05-17.4 0-3.2 1.11-5.6 3.11-6.76s4.64-.92 7.41.69c5.54 3.19 10.05 11 10.05 17.4 0 3.2-1.1 5.6-3.11 6.76a5.52 5.52 0 0 1-2.79.72Zm-8.76-25.34a4.63 4.63 0 0 0-2.32.59c-1.7 1-2.64 3.09-2.64 5.94 0 6.09 4.3 13.53 9.57 16.58 2.47 1.42 4.76 1.67 6.46.69s2.64-3.09 2.64-5.94c0-6.1-4.29-13.53-9.57-16.58a8.44 8.44 0 0 0-4.14-1.3Z"/><path class="cls-3" d="m274.1 159.29-.18-.11a2.89 2.89 0 0 1-1.22-2.31v-3.36c0-.89.55-1.3 1.22-.92l.18.11a2.88 2.88 0 0 1 1.21 2.31v3.36c0 .89-.54 1.3-1.21.92Z"/><path class="cls-1" d="M274.58 159.91a1.45 1.45 0 0 1-.72-.21l-.18-.1a3.39 3.39 0 0 1-1.45-2.73v-3.36a1.51 1.51 0 0 1 .66-1.39 1.25 1.25 0 0 1 1.26.06l.18.1a3.38 3.38 0 0 1 1.46 2.73v3.36a1.51 1.51 0 0 1-.66 1.39 1.06 1.06 0 0 1-.55.15Zm-1.14-7h-.08c-.09.05-.18.25-.18.57v3.36a2.48 2.48 0 0 0 1 1.9l.19.11c.13.07.25.1.31.06s.19-.25.19-.57V155a2.46 2.46 0 0 0-1-1.9l-.18-.11a.56.56 0 0 0-.25-.07Z"/><path class="cls-3" d="m280.13 162.89-.18-.11a2.88 2.88 0 0 1-1.21-2.31v-3.36c0-.89.54-1.3 1.21-.92l.18.11a2.89 2.89 0 0 1 1.22 2.31V162c0 .86-.55 1.27-1.22.89Z"/><path class="cls-1" d="M280.62 163.51a1.42 1.42 0 0 1-.72-.21l-.18-.1a3.37 3.37 0 0 1-1.45-2.73v-3.36a1.52 1.52 0 0 1 .65-1.39 1.24 1.24 0 0 1 1.27.06l.18.11a3.33 3.33 0 0 1 1.45 2.72V162a1.53 1.53 0 0 1-.65 1.39 1.08 1.08 0 0 1-.55.12Zm-1.15-7h-.07c-.09.05-.18.25-.18.57v3.36a2.45 2.45 0 0 0 1 1.9l.18.11c.07 0 .23.11.32.06s.18-.25.18-.57v-3.36a2.45 2.45 0 0 0-1-1.9l-.18-.11a.57.57 0 0 0-.25-.05ZM280.94 168.48a8.61 8.61 0 0 0-2.92-3l-2.46-1.48a2.82 2.82 0 0 0-2.64-.36l-.43-.84a3.72 3.72 0 0 1 3.54.38l2.47 1.42a9.69 9.69 0 0 1 3.26 3.37ZM274 184.35l-1.18.68a.52.52 0 0 1-.47 0l-1.12-.64c-.14-.08-.15-.21 0-.28l1.18-.68a.52.52 0 0 1 .47 0l1.12.64c.1.09.11.21 0 .28ZM276.74 185.93l-1.18.69a.52.52 0 0 1-.47 0L274 186c-.14-.08-.15-.2 0-.27l1.18-.68a.52.52 0 0 1 .47 0l1.12.64c.08.05.09.17-.03.24ZM273.84 187.61l-1.18.68a.52.52 0 0 1-.47 0l-1.11-.64c-.14-.09-.16-.21 0-.28l1.18-.68a.54.54 0 0 1 .48 0l1.11.64c.15.08.15.21-.01.28ZM279.64 184.26l-1.19.68a.49.49 0 0 1-.47 0l-1.11-.64c-.14-.08-.16-.2 0-.27l1.19-.68a.52.52 0 0 1 .47 0l1.11.64c.1.08.12.2 0 .27ZM279.65 187.61l-1.18.69a.54.54 0 0 1-.48 0l-1.11-.65c-.14-.08-.15-.2 0-.27l1.18-.68a.52.52 0 0 1 .47 0l1.11.64c.11.08.13.2.01.27ZM276.75 189.29l-1.18.68a.52.52 0 0 1-.47 0l-1.1-.67c-.14-.08-.16-.2 0-.27l1.18-.68a.54.54 0 0 1 .48 0l1.11.64c.09.1.1.23-.02.3ZM282.54 185.94l-1.18.68a.52.52 0 0 1-.47 0l-1.11-.64c-.14-.08-.16-.2 0-.27l1.18-.68a.54.54 0 0 1 .48 0l1.11.64c.1.08.12.2-.01.27ZM282.4 189.2l-1.18.68a.54.54 0 0 1-.48 0l-1.11-.64c-.14-.08-.16-.2 0-.27l1.18-.68a.52.52 0 0 1 .47 0l1.11.65c.11.06.13.19.01.26ZM279.5 190.87l-1.18.68a.49.49 0 0 1-.47 0l-1.12-.64c-.14-.08-.15-.2 0-.27l1.18-.68a.52.52 0 0 1 .47 0l1.12.64c.11.08.12.2 0 .27ZM285.29 187.53l-1.18.68a.52.52 0 0 1-.47 0l-1.11-.64c-.14-.08-.16-.21 0-.27l1.18-.69a.54.54 0 0 1 .48 0l1.11.65c.1.08.11.2-.01.27ZM285.15 190.79l-1.19.68a.52.52 0 0 1-.47 0l-1.11-.64c-.14-.08-.16-.21 0-.28l1.19-.68a.52.52 0 0 1 .47 0l1.11.64c.1.08.12.21 0 .28ZM282.25 192.46l-1.18.68a.52.52 0 0 1-.47 0l-1.12-.64c-.14-.08-.15-.2 0-.27l1.18-.69a.52.52 0 0 1 .47 0l1.12.65c.11.08.12.2 0 .27ZM288 189.12l-1.18.68a.52.52 0 0 1-.47 0l-1.12-.65c-.14-.08-.15-.2 0-.27l1.18-.68a.52.52 0 0 1 .47 0l1.12.64c.15.08.16.21 0 .28ZM288.05 192.47l-1.18.68a.52.52 0 0 1-.47 0l-1.11-.64c-.14-.08-.16-.21 0-.28l1.18-.68a.54.54 0 0 1 .48 0l1.11.64c.1.08.12.21-.01.28ZM285.16 194.14l-1.18.68a.54.54 0 0 1-.48 0l-1.11-.64c-.14-.08-.15-.21 0-.27l1.18-.69a.52.52 0 0 1 .47 0l1.11.65c.11.13.13.2.01.27ZM291 190.79l-1.18.69a.52.52 0 0 1-.47 0l-1.12-.65c-.14-.08-.15-.2 0-.27l1.18-.68a.52.52 0 0 1 .47 0l1.12.64c.06.08.07.2 0 .27ZM290.8 194.05l-1.18.69a.52.52 0 0 1-.47 0l-1.11-.65c-.14-.08-.16-.2 0-.27l1.18-.68a.54.54 0 0 1 .48 0l1.11.64c.1.08.11.22-.01.27ZM287.91 195.73l-1.18.68a.54.54 0 0 1-.48 0l-1.11-.65c-.14-.08-.16-.2 0-.27l1.18-.68a.52.52 0 0 1 .47 0l1.11.64c.1.08.1.21.01.28ZM293.7 192.38l-1.18.68a.54.54 0 0 1-.48 0l-1.11-.64c-.14-.08-.15-.2 0-.27l1.18-.68a.49.49 0 0 1 .47 0l1.11.64c.11.08.13.2.01.27ZM293.55 195.64l-1.18.68a.52.52 0 0 1-.47 0l-1.12-.64c-.14-.08-.15-.2 0-.27l1.18-.69a.56.56 0 0 1 .47 0l1.12.65c.11.08.12.2 0 .27ZM306.88 167.66h.95v3.78h-.95z"/><path class="cls-1" d="M305.37 169.08h3.97v.95h-3.97z"/><path class="cls-3" d="M166.62 13.72 145.18 1.34A3.3 3.3 0 0 0 142 1l-.84.51L135 5.27a.08.08 0 0 0 0 .1c.31.65 3.22 6.74 3.48 7.86.12.47 1 5.13 2.08 10.54v2.74a9.62 9.62 0 0 0 1.44 4.7c1.1 5.65 2 10.48 2.06 10.6l3.18 7.49a.07.07 0 0 0 .11 0l7.26-4.23a.08.08 0 0 0 0-.09l-.54-1.53a19 19 0 0 1-.3-2.36l9.26 10.29a.07.07 0 0 0 .09 0l6.76-4.18.11-.07a3.3 3.3 0 0 0 1.29-3V21.81a10.36 10.36 0 0 0-4.66-8.09Z"/><path class="cls-1" d="M163.1 52.18a.78.78 0 0 1-.58-.26l-7.74-8.61.52 1.48a.79.79 0 0 1-.35 1l-7.53 4.39-.37-.09a.83.83 0 0 1-.48-.44L143.34 42c0-.12-.94-4.88-2-10.49a10.16 10.16 0 0 1-1.48-5v-2.66c-1.27-6.55-2-10.07-2.06-10.46-.17-.74-1.9-4.52-3.43-7.72a.78.78 0 0 1 .29-1l7-4.32a4 4 0 0 1 3.89.37L167 13.1a11.14 11.14 0 0 1 5 8.71v22.45a4 4 0 0 1-1.62 3.56l-6.87 4.24a.79.79 0 0 1-.41.12ZM153 39.17l10.25 11.4 6.31-3.9.48.54-.38-.6a2.66 2.66 0 0 0 1-2.35V21.81a9.69 9.69 0 0 0-4.32-7.48L144.82 2a2.68 2.68 0 0 0-2.48-.36l-6.47 4c.95 2 3 6.45 3.29 7.49.1.41.78 3.87 2.08 10.57v2.87a8.84 8.84 0 0 0 1.34 4.33l.09.24c1 5.35 1.93 10 2 10.56l2.87 6.76 6.18-3.6-.4-1.21a19 19 0 0 1-.3-2.4Z"/><path class="cls-2" d="M166.6 13.72 146.5 2.16 136.4 8.5l21.51 11.32 4.52.72 7-4.14a9.08 9.08 0 0 0-2.83-2.68Z"/><path class="cls-1" d="m162.57 21.28-5-.83L135 8.55l11.52-7.22L167 13.1a9.58 9.58 0 0 1 3 2.9l.44.63Zm-4.43-2.14 4.15.65 6.05-3.59a7.74 7.74 0 0 0-2.1-1.87L146.52 3l-8.69 5.46ZM164.17 24.23s-8.68 2.05-9.24 2.26a112 112 0 0 0-11.87 10.24c.57 3 1 5 1 5.1l3.18 7.5a.07.07 0 0 0 .11 0l7.26-4.23a.08.08 0 0 0 0-.09l-.54-1.53a19 19 0 0 1-.3-2.36l9.26 10.29a.07.07 0 0 0 .09 0l6.76-4.18.11-.07a3.3 3.3 0 0 0 1.29-3V21.81a7.82 7.82 0 0 0-.21-1.7Z"/><path class="cls-3" transform="rotate(-31.17 168.06 25.256)" d="M165.03 24.79h6.01v.95h-6.01z"/><path class="cls-3" transform="rotate(-31.17 167.872 45.393)" d="M164.87 44.92h6.01v.95h-6.01z"/><path class="cls-3" d="M159.77 18 138.29 5.59c-2.56-1.47-4.64-.28-4.64 2.68v22.49a10.23 10.23 0 0 0 4.64 8l2.44 1.42a2 2 0 0 1 .91 1.37 12.18 12.18 0 0 0 4.71 7.81c.68.5 1.22.07 1-.8a18.31 18.31 0 0 1-.5-3.77c0-.59.42-.83.93-.53l12 6.9c2.56 1.48 4.63.28 4.63-2.67V26a10.26 10.26 0 0 0-4.64-8Z"/><path class="cls-1" d="M161.84 52.54a4.87 4.87 0 0 1-2.43-.73L147.6 45a16.71 16.71 0 0 0 .47 3.44 1.54 1.54 0 0 1-.52 1.7 1.39 1.39 0 0 1-1.62-.17 12.74 12.74 0 0 1-5-8.26 1.43 1.43 0 0 0-.56-.88l-2.45-1.41a10.88 10.88 0 0 1-5-8.65V8.27a3.94 3.94 0 0 1 1.71-3.62 3.92 3.92 0 0 1 4 .33l21.48 12.4a10.87 10.87 0 0 1 5 8.64v22.5a3.93 3.93 0 0 1-1.72 3.62 3.1 3.1 0 0 1-1.55.4Zm-14.46-9.09a1.54 1.54 0 0 1 .78.22l12 6.91a2.14 2.14 0 0 0 3.57-2.06V26a9.47 9.47 0 0 0-4.28-7.41L137.93 6.21a2.57 2.57 0 0 0-2.56-.32 2.58 2.58 0 0 0-1 2.38v22.49a9.51 9.51 0 0 0 4.27 7.42l2.45 1.41a2.75 2.75 0 0 1 1.25 1.88 11.41 11.41 0 0 0 4.33 7.27 18.75 18.75 0 0 1-.51-3.92 1.33 1.33 0 0 1 .62-1.21 1.17 1.17 0 0 1 .6-.16Z"/><path class="cls-3" d="M148.66 17.07c-5.41-3.13-9.81-.59-9.81 5.66s4.4 13.87 9.81 17 9.81.58 9.81-5.66-4.4-13.88-9.81-17Zm-7.43 7c0-4.73 3.33-6.66 7.43-4.29a14.06 14.06 0 0 1 4.16 3.87l-10 6.64a14.47 14.47 0 0 1-1.59-6.19ZM148.66 37a13.91 13.91 0 0 1-4.09-3.79l10-6.63a14.48 14.48 0 0 1 1.55 6.13c-.02 4.71-3.36 6.64-7.46 4.29Z"/><path class="cls-1" d="M153 41.54a9.27 9.27 0 0 1-4.61-1.41c-5.54-3.2-10.05-11-10.05-17.4 0-3.2 1.1-5.6 3.11-6.76s4.64-.91 7.41.68c5.54 3.2 10 11 10 17.41 0 3.2-1.11 5.59-3.12 6.75a5.43 5.43 0 0 1-2.74.73Zm-8.71-25.34a4.56 4.56 0 0 0-2.32.6c-1.7 1-2.64 3.09-2.64 5.93 0 6.09 4.29 13.53 9.57 16.58 2.46 1.42 4.76 1.66 6.46.68S158 36.9 158 34.06c0-6.1-4.3-13.53-9.57-16.58a8.44 8.44 0 0 0-4.14-1.28ZM152 38.47a7.17 7.17 0 0 1-3.55-1.08 14.39 14.39 0 0 1-4.24-3.92l-.3-.4 10.85-7.21.24.5a14.9 14.9 0 0 1 1.59 6.33c0 2.46-.85 4.32-2.41 5.22a4.39 4.39 0 0 1-2.18.56Zm-6.72-5.17a13.14 13.14 0 0 0 3.64 3.27c1.83 1.06 3.53 1.24 4.78.51s1.94-2.28 1.94-4.39a13.7 13.7 0 0 0-1.27-5.43Zm-2.64-2.3-.24-.49a14.86 14.86 0 0 1-1.65-6.43c0-2.47.86-4.32 2.42-5.22s3.6-.72 5.73.52a14.54 14.54 0 0 1 4.31 4l.29.4Zm2.71-11.75a3.33 3.33 0 0 0-1.7.43c-1.26.73-2 2.29-2 4.4a13.63 13.63 0 0 0 1.35 5.54l9.12-6.05a13.27 13.27 0 0 0-3.71-3.35 6.34 6.34 0 0 0-3.06-.95ZM124.94 26.9h.95v3.78h-.95z"/><path class="cls-1" d="M123.43 28.32h3.97v.95h-3.97z"/><path class="cls-3" d="M44.24 100.47 22.8 88.1a3.3 3.3 0 0 0-3.16-.38l-.85.51L12.63 92a.08.08 0 0 0 0 .1c.32.65 3.23 6.74 3.49 7.86.11.47 1 5.13 2.08 10.54v2.74a9.52 9.52 0 0 0 1.4 4.76c1.09 5.65 2 10.48 2.05 10.6l3.17 7.5a.08.08 0 0 0 .11 0l7.26-4.23a.07.07 0 0 0 0-.09l-.54-1.53a17.3 17.3 0 0 1-.29-2.36l9.25 10.29a.1.1 0 0 0 .1 0l6.81-4.18.1-.07a3.28 3.28 0 0 0 1.29-2.93v-22.43a10.38 10.38 0 0 0-4.67-8.1Z"/><path class="cls-1" d="M40.72 138.94a.77.77 0 0 1-.58-.26l-7.75-8.61.52 1.49a.8.8 0 0 1-.35.95L25 136.92l-.36-.1a.75.75 0 0 1-.48-.44L21 128.71l-2-10.48a10.1 10.1 0 0 1-1.48-5v-2.66c-1.28-6.55-2-10.07-2.06-10.46-.18-.74-1.91-4.52-3.44-7.72a.8.8 0 0 1 .3-1l7-4.31a4 4 0 0 1 3.88.37l21.39 12.41a11.11 11.11 0 0 1 5 8.71V131a4 4 0 0 1-1.59 3.58l-6.87 4.24a.75.75 0 0 1-.41.12Zm-10.13-13 10.25 11.4 6.3-3.9.48.54-.38-.6a2.64 2.64 0 0 0 1-2.35v-22.46a9.71 9.71 0 0 0-4.32-7.48L22.44 88.71a2.7 2.7 0 0 0-2.44-.36l-6.46 4c.85 1.8 3 6.44 3.28 7.48.1.42.78 3.88 2.09 10.58v2.87a8.9 8.9 0 0 0 1.34 4.33l.07.11v.16l2 10.53 2.87 6.76 6.18-3.6-.37-1.14a18.81 18.81 0 0 1-.31-2.49Z"/><path class="cls-2" d="M44.21 100.47 24.12 88.92 14 95.26l21.52 11.32 4.52.72 7-4.14a9.12 9.12 0 0 0-2.83-2.69Z"/><path class="cls-1" d="m40.19 108-5-.83-22.6-11.9 11.51-7.18 20.47 11.77a9.61 9.61 0 0 1 3 2.9l.43.63Zm-4.44-2.14 4.15.65L46 103a7.86 7.86 0 0 0-2.1-1.87L24.14 89.75l-8.7 5.45ZM41.79 111s-8.68 2.05-9.24 2.26a111.81 111.81 0 0 0-11.88 10.24c.58 3 1 5 1 5.1l3.17 7.5a.08.08 0 0 0 .11 0l7.26-4.23a.07.07 0 0 0 0-.09l-.54-1.53a17.3 17.3 0 0 1-.29-2.36l9.25 10.29a.08.08 0 0 0 .1 0l6.79-4.18.1-.07a3.28 3.28 0 0 0 1.29-2.93v-22.43a7.25 7.25 0 0 0-.21-1.7Z"/><path class="cls-3" transform="rotate(-31.22 45.657 112.037)" d="M42.65 111.55h6.01v.95h-6.01z"/><path class="cls-3" transform="rotate(-31.23 45.484 132.14)" d="M42.48 131.68h6.01v.95h-6.01z"/><path class="cls-3" d="M37.38 104.75 15.9 92.35c-2.56-1.48-4.63-.28-4.63 2.68v22.49a10.24 10.24 0 0 0 4.63 8l2.45 1.48a2.1 2.1 0 0 1 .91 1.38 12.1 12.1 0 0 0 4.74 7.77c.67.5 1.22.07 1-.8a17.65 17.65 0 0 1-.5-3.77c0-.6.42-.83.93-.53l12 6.9c2.56 1.48 4.64.28 4.64-2.67v-22.5a10.27 10.27 0 0 0-4.69-8.03Z"/><path class="cls-1" d="M39.45 139.3a4.84 4.84 0 0 1-2.42-.73l-11.82-6.82a17.75 17.75 0 0 0 .47 3.44 1.52 1.52 0 0 1-.52 1.7 1.39 1.39 0 0 1-1.62-.17 12.78 12.78 0 0 1-5-8.26 1.35 1.35 0 0 0-.56-.88l-2.44-1.41a10.89 10.89 0 0 1-5-8.65V95a3.92 3.92 0 0 1 1.72-3.62 3.92 3.92 0 0 1 4 .33l21.48 12.4a10.86 10.86 0 0 1 5 8.64v22.5A4 4 0 0 1 41 138.9a3.11 3.11 0 0 1-1.55.4ZM25 130.21a1.57 1.57 0 0 1 .78.22l12 6.91a2.6 2.6 0 0 0 2.56.32 2.59 2.59 0 0 0 1-2.38v-22.5a9.47 9.47 0 0 0-4.34-7.41L15.55 93a2.59 2.59 0 0 0-2.55-.35A2.59 2.59 0 0 0 12 95v22.49a9.49 9.49 0 0 0 4.28 7.42l2.45 1.41a2.78 2.78 0 0 1 1.27 1.91 11.36 11.36 0 0 0 4.33 7.27 18.32 18.32 0 0 1-.51-3.92 1.31 1.31 0 0 1 .62-1.21 1.15 1.15 0 0 1 .56-.16Z"/><path class="cls-3" d="m35.94 124.23-1.71-2.12a8.39 8.39 0 0 0 .27-2.11 12.53 12.53 0 0 0-.27-2.47l1.71-.15c.24 0 .33-.34.18-.7l-1.54-4c-.14-.37-.46-.64-.7-.62l-1.7.15a17.84 17.84 0 0 0-3.48-4.32v-2.27a1.13 1.13 0 0 0-.51-.89l-3.09-1.79c-.28-.16-.51 0-.51.3v2.27a4.57 4.57 0 0 0-3.48.31l-1.7-2.12c-.25-.3-.56-.39-.7-.18l-1.55 2.19a.87.87 0 0 0 .19.92l1.71 2.12a8.45 8.45 0 0 0-.27 2.16 12.53 12.53 0 0 0 .27 2.47l-1.71.15c-.25 0-.33.34-.19.71l1.55 4c.14.37.45.65.7.63l1.7-.15a17.37 17.37 0 0 0 3.48 4.28v2.28a1.15 1.15 0 0 0 .51.89l3.09 1.78c.28.16.51 0 .51-.3v-2.27a4.58 4.58 0 0 0 3.48-.3l1.7 2.11c.24.31.56.39.7.19l1.54-2.2a.86.86 0 0 0-.18-.95Z"/><path class="cls-1" d="M28.42 128.47a.92.92 0 0 1-.47-.14l-3.09-1.78a1.62 1.62 0 0 1-.75-1.3v-2.06a18.56 18.56 0 0 1-3.26-4l-1.4.12a1.31 1.31 0 0 1-1.19-.92l-1.54-4a1.12 1.12 0 0 1 0-1 .73.73 0 0 1 .56-.35l1.18-.11a12.43 12.43 0 0 1-.18-2 9 9 0 0 1 .23-2L17 106.9a1.32 1.32 0 0 1-.21-1.49l1.55-2.2a.72.72 0 0 1 .58-.31 1.09 1.09 0 0 1 .88.48l1.46 1.81a5 5 0 0 1 2.87-.29v-1.69a.81.81 0 0 1 .39-.74.82.82 0 0 1 .84 0l3.08 1.79a1.6 1.6 0 0 1 .76 1.3v2.06a18 18 0 0 1 3.25 4l1.41-.13a1.3 1.3 0 0 1 1.18.93l1.55 4a1.15 1.15 0 0 1 0 1 .73.73 0 0 1-.56.34l-1.19.11a12.53 12.53 0 0 1 .18 2 9.14 9.14 0 0 1-.22 2l1.56 1.94a1.3 1.3 0 0 1 .2 1.49L35 127.62a.7.7 0 0 1-.58.31 1.11 1.11 0 0 1-.88-.47l-1.46-1.82a4.9 4.9 0 0 1-2.87.3v1.68a.83.83 0 0 1-.39.75.79.79 0 0 1-.4.1Zm-7-10.31.15.26a17.18 17.18 0 0 0 3.38 4.2l.16.14v2.49a.67.67 0 0 0 .28.48l2.88 1.66v-2.66l.59.16a4.05 4.05 0 0 0 3.12-.26l.35-.2 2 2.43v.06l1.43-2a.82.82 0 0 0-.16-.35l-1.86-2.31.06-.23a7.92 7.92 0 0 0 .25-2 11.51 11.51 0 0 0-.26-2.37l-.1-.52 2-.19a.25.25 0 0 0 0-.07l-1.54-4a.64.64 0 0 0-.26-.32l-2 .18-.15-.26a17.65 17.65 0 0 0-3.38-4.2l-.16-.15v-2.48a.67.67 0 0 0-.28-.48l-2.89-1.67v2.66l-.6-.16a4.14 4.14 0 0 0-3.12.26l-.35.2L19 104l-.05-.06-1.44 2a1 1 0 0 0 .17.35l1.86 2.31-.06.23a8 8 0 0 0-.26 2 12.26 12.26 0 0 0 .26 2.38l.11.52-2.05.18v.07l1.54 4a.59.59 0 0 0 .26.33Z"/><path class="cls-3" d="M30.36 117.57c0 2.37-1.66 3.33-3.72 2.14a8.22 8.22 0 0 1-3.72-6.44c0-2.37 1.67-3.34 3.72-2.15a8.21 8.21 0 0 1 3.72 6.45Z"/><path class="cls-1" d="M28.31 120.7a3.83 3.83 0 0 1-1.9-.57 8.66 8.66 0 0 1-4-6.86 3.06 3.06 0 0 1 1.32-2.82 3.06 3.06 0 0 1 3.11.26 8.63 8.63 0 0 1 4 6.86 3.06 3.06 0 0 1-1.33 2.82 2.36 2.36 0 0 1-1.2.31ZM25 111.09a1.46 1.46 0 0 0-.73.18 2.18 2.18 0 0 0-.85 2 7.7 7.7 0 0 0 3.48 6 2.16 2.16 0 0 0 2.16.26 2.15 2.15 0 0 0 .85-2 7.72 7.72 0 0 0-3.48-6 3 3 0 0 0-1.43-.44ZM23.67 139.43l-1.18.68a.54.54 0 0 1-.48 0l-1.11-.64c-.14-.08-.16-.2 0-.27l1.18-.68a.52.52 0 0 1 .47 0l1.11.64c.11.08.13.2.01.27ZM26.42 141l-1.19.68a.52.52 0 0 1-.47 0l-1.11-.68c-.14-.08-.16-.2 0-.27l1.19-.69a.52.52 0 0 1 .47 0l1.11.65c.1.14.12.31 0 .31ZM23.52 142.69l-1.18.68a.52.52 0 0 1-.47 0l-1.12-.64c-.14-.08-.15-.2 0-.27l1.18-.68a.49.49 0 0 1 .47 0l1.12.64c.11.08.12.2 0 .27ZM29.31 139.35l-1.18.68a.52.52 0 0 1-.47 0l-1.12-.64c-.14-.08-.15-.21 0-.28l1.18-.68a.52.52 0 0 1 .47 0l1.12.64c.11.08.12.21 0 .28ZM29.32 142.7l-1.18.68a.52.52 0 0 1-.47 0l-1.11-.64c-.14-.08-.16-.21 0-.28l1.18-.68a.54.54 0 0 1 .48 0l1.11.65c.1.08.12.2-.01.27ZM26.43 144.37l-1.18.68a.54.54 0 0 1-.48 0l-1.11-.64c-.14-.08-.15-.2 0-.27l1.18-.69a.52.52 0 0 1 .47 0l1.11.65c.11.08.13.2.01.27ZM32.22 141l-1.18.68a.52.52 0 0 1-.47 0l-1.12-.64c-.14-.09-.15-.21 0-.28l1.18-.68a.52.52 0 0 1 .47 0l1.12.64c.11.11.12.28 0 .28ZM32.07 144.28l-1.18.69a.52.52 0 0 1-.47 0l-1.11-.65c-.14-.08-.16-.2 0-.27l1.18-.68a.54.54 0 0 1 .48 0L32 144c.18.09.19.21.07.28ZM29.18 146l-1.18.68a.54.54 0 0 1-.48 0l-1.11-.68c-.14-.08-.16-.21 0-.28l1.18-.68a.52.52 0 0 1 .47 0l1.11.64c.11.08.13.21.01.32ZM35 142.61l-1.18.68a.54.54 0 0 1-.48 0l-1.11-.65c-.14-.08-.15-.2 0-.27l1.18-.68a.52.52 0 0 1 .47 0l1.11.64c.08.09.1.21.01.28ZM34.82 145.87l-1.18.68a.52.52 0 0 1-.47 0l-1.12-.64c-.14-.08-.15-.2 0-.27l1.18-.68a.52.52 0 0 1 .47 0l1.12.64c.11.08.12.2 0 .27ZM31.93 147.54l-1.19.69a.52.52 0 0 1-.47 0l-1.11-.65c-.14-.08-.16-.2 0-.27l1.19-.68a.52.52 0 0 1 .47 0l1.11.64c.07.08.12.2 0 .27ZM37.72 144.2l-1.18.68a.54.54 0 0 1-.48 0l-1.06-.66c-.14-.08-.15-.2 0-.27l1.18-.69a.52.52 0 0 1 .47 0l1.11.65c.06.09.08.22-.04.29ZM37.73 147.55l-1.18.68a.52.52 0 0 1-.47 0l-1.08-.66c-.14-.08-.15-.2 0-.27l1.18-.68a.49.49 0 0 1 .47 0l1.12.64c.07.1.08.22-.04.29ZM34.83 149.22l-1.18.68a.52.52 0 0 1-.47 0l-1.11-.65c-.14-.08-.16-.2 0-.27l1.18-.68a.54.54 0 0 1 .48 0l1.11.64c.1.06.16.21-.01.28ZM40.63 145.88l-1.19.68a.52.52 0 0 1-.47 0l-1.11-.64c-.14-.08-.16-.2 0-.27l1.19-.69a.52.52 0 0 1 .47 0l1.11.65c.1.08.12.2 0 .27ZM40.48 149.14l-1.18.68a.54.54 0 0 1-.48 0l-1.11-.64c-.14-.08-.15-.21 0-.28l1.18-.68a.52.52 0 0 1 .47 0l1.11.65c.11.13.13.2.01.27ZM37.58 150.81l-1.18.68a.52.52 0 0 1-.47 0l-1.11-.64c-.14-.08-.16-.2 0-.27l1.18-.69a.54.54 0 0 1 .48 0l1.11.65c.1.08.11.2-.01.27ZM43.37 147.47l-1.18.68a.52.52 0 0 1-.47 0l-1.11-.64c-.14-.09-.16-.21 0-.28l1.18-.68a.54.54 0 0 1 .48 0l1.11.64c.1.08.12.21-.01.28ZM43.23 150.72l-1.18.69a.54.54 0 0 1-.48 0l-1.11-.65c-.14-.08-.15-.2 0-.27l1.18-.68a.52.52 0 0 1 .47 0l1.11.64c.11.08.13.2.01.27ZM1.51 119.17h.95v3.78h-.95z"/><path class="cls-1" d="M0 120.59h3.97v.95H0z"/></g></g></g></svg>