<svg xmlns="http://www.w3.org/2000/svg" viewBox="0 0 374.55 396.88"><defs><style>.cls-10,.cls-3{fill:#1e1f0f}.cls-3{opacity:.15}.cls-4{fill:#89ff4d}.cls-5,.cls-8{fill:#02ed00}.cls-6{fill:#070d04}.cls-8{mix-blend-mode:screen}.cls-18{fill:none;stroke-miterlimit:10;stroke-width:.99px}.cls-15{fill:#6ec13d}.cls-17{fill:#f9cec8}.cls-18{stroke:#61241e}.cls-22{fill:#f6b9b1}.cls-26{fill:#edeeef}.cls-29,.cls-34{fill:#fff}.cls-29{opacity:.59;mix-blend-mode:overlay}.cls-33{fill:#a1ff71}</style></defs><title>help</title><g style="isolation:isolate"><g id="Layer_2" data-name="Layer 2"><g id="OBJECTS"><g style="opacity:.69"><path class="cls-3" d="M97 52.33a165.28 165.28 0 0 0 0 295.22ZM212.76 40v319.91a165.28 165.28 0 0 0 0-319.94ZM205.41 38.25a166.3 166.3 0 0 0-34.15-3.54 164.62 164.62 0 0 0-66.94 14.14V351a165.91 165.91 0 0 0 101.09 10.59Z"/></g><path class="cls-4" d="M0 302.1h374.55v10.89H0z"/><path class="cls-5" d="M35.91 396.88h294.51a13.78 13.78 0 0 0 13.78-13.78V313H22.13v70.1a13.78 13.78 0 0 0 13.78 13.78Z"/><path class="cls-6" d="M22.13 312.99H344.2v7.67H22.13z"/><path style="opacity:.63;fill:#070d04" d="M344.2 312.99 22.13 341.21v-28.22H344.2z"/><rect class="cls-6" x="28.98" y="109.28" width="123.76" height="135.73" rx="10.74"/><rect class="cls-5" x="20.3" y="109.28" width="123.76" height="135.73" rx="10.74"/><path class="cls-5" d="M35.29 302.1h34.65l29.71-110.07H64.99L35.29 302.1z"/><path class="cls-5" d="M115.84 302.1H64.85l1.76-6.53h49.23v6.53z"/><path class="cls-8" d="M115.84 227.83h13.86v5.93h-13.86zM97.03 227.83h13.86v5.93H97.03z"/><circle cx="78.22" cy="156.07" r="10.71" style="mix-blend-mode:multiply;fill:#070d04"/><path class="cls-6" d="M30.2 302.1h34.65l29.7-110.07H59.9L30.2 302.1z"/><path class="cls-10" d="m90.86 245 8.79-52.97L85.35 245h5.51z"/><path class="cls-8" d="M103.96 199.8h31.88v2.62h-31.88zM103.96 203.82h31.88v2.62h-31.88zM103.96 207.84h31.88v2.62h-31.88zM103.96 211.86h31.88v2.62h-31.88zM103.96 215.88h31.88v2.62h-31.88z"/><path style="stroke-width:.99px;stroke:#34a100;fill:none;stroke-miterlimit:10" d="M94.55 192.03 64.85 302.1"/><path style="stroke:#89ff4d;stroke-width:.99px;fill:none;stroke-miterlimit:10" d="M28.98 197.07h14.07v37.19H28.98z"/><path d="M183.83 238.07v33.66h-45.5a37.6 37.6 0 0 0-22.7 7.41C109.52 283.78 104 291 104 302.1h106.89l-2.64-64Z" style="fill:#eaa79d"/><path class="cls-6" d="M106.24 283.22h9.3v6.37h-9.3zM119.86 283.22h9.3v6.37h-9.3zM133.47 283.22h9.3v6.37h-9.3zM147.09 283.22h9.3v6.37h-9.3z"/><path style="fill:#1b300f" d="M98.08 289.6h63.69v12.5H98.08z"/><path class="cls-15" d="M203.3 166.78s-19.47 10.22-19.47 26.08v45.21h24.42Z"/><path class="cls-4" d="m245.21 153.56 31.36 20.49V302.1h-84.16V181s-.33-6.93 10.89-14.2 22.7-13.24 22.7-13.24Z"/><path d="M270.3 258.86s-21.15-11.86-28.89-44.55c-2.8-12.87-6.43 14.85 3.8 29.7s19.41 26.73 9.13 18.81-21.54-9.4-4 8.91 23.6 9.25 23.6 9.25Z" style="opacity:.61;fill:#2c0a0c;mix-blend-mode:multiply"/><path class="cls-15" d="M219.8 175.37c-5.84-1.09-3.13-11.25-.57-18.13 4.06-2.28 6.76-3.68 6.76-3.68h19.22l4.71 3.07c-4.75 6.42-16.81 20.53-30.12 18.74Z"/><path class="cls-17" d="M276.57 174.05s15.51 9.57 18.15 21.78c1.9 8.79 9.78 60 14 88a15.9 15.9 0 0 1-15.72 18.3H151.81s-3.63-30.37 45.55-30.37h69.31l-7.93-55.11s-2.64-37.98 17.83-42.6Z"/><path class="cls-18" d="M266.67 271.73h14.48"/><path class="cls-17" d="M150.45 281h42v-9.25h-42a4.58 4.58 0 0 0-4.58 4.58v.09a4.58 4.58 0 0 0 4.58 4.58Z"/><path d="M307.75 277.1c.36 2.34.7 4.59 1 6.7a15.9 15.9 0 0 1-15.72 18.3h-.24a20.85 20.85 0 0 1 14.94-25Z" style="fill:#8c7a7b;opacity:.18;mix-blend-mode:multiply"/><path class="cls-4" d="m261.21 233.75-2.47-17.13s-2.64-38 17.83-42.57c0 0 15.51 9.57 18.15 21.78 1 4.49 3.5 20 6.32 37.92Z"/><path style="fill:#e53020" d="M261.83 238.07h39.88l-1.36-8.63h-39.76l1.24 8.63z"/><path class="cls-15" d="M261.83 238.07h39.88l-1.36-8.63h-39.76l1.24 8.63z"/><path class="cls-18" d="m261.83 238.07-3.18-27.08M165 302.1s1.88-17.52 18.81-21.12"/><path d="M279.83 200.58c-4.93-21.08-29.9-43.94-29.91-44L276.57 174s15.51 9.57 18.15 21.78c1.9 8.79 9.78 60 14 88a15.82 15.82 0 0 1-3.53 12.6c-20.3-13.38-20.86-76.57-25.36-95.8Z" style="opacity:.44;fill:#2c0a0c;mix-blend-mode:multiply"/><path class="cls-6" d="M234.73 87.05h-8a4.22 4.22 0 0 0-4.23 4.22V95h5.53v-5.17s-.03-2.78 6.7-2.78Z"/><path class="cls-6" d="M243.67 140.07s8.38-5 8.38-14.21V108.2s-.91-15.82-13.43-17.84A49.32 49.32 0 0 0 216.09 92Z"/><path class="cls-22" d="M226 138.27v15.29s-12.8 23.66 2.78 14.69 16.44-14.69 16.44-14.69v-27.7Z"/><path d="M216.09 106.68s-12.6-2.8-9.37-20.14c11.61 5.15 16 4.85 22.63 5.44s8.23 11.32 8.23 12.64-21.49 2.06-21.49 2.06Z" style="fill:#2c2d1e"/><path class="cls-10" d="M226 149.42v-11.15l3.68-2.38 13-6.29s-9.18 16.65-16.68 19.82Z"/><path class="cls-22" d="M220.35 99.63a8.86 8.86 0 0 0-7.09 3.91 15.72 15.72 0 0 0-2.37 8.79v23.52a6.28 6.28 0 0 0 6.58 6.28c8.43-.43 22.56-3.19 27.74-16.27V109s-4.62-8.58-11.22-9.24a110.43 110.43 0 0 0-13.64-.13Z"/><ellipse class="cls-6" cx="224.26" cy="117.03" rx="1.73" ry="2.48"/><path style="stroke-linecap:round;stroke:#070d04;stroke-width:.99px;fill:none;stroke-miterlimit:10" d="m216.09 126.72-4.41-.86 2.8-8.83"/><path d="M219.8 108.86s6.44-2.22 10.89 1.49" style="stroke-width:2.97px;stroke-linecap:round;stroke:#070d04;fill:none;stroke-miterlimit:10"/><path class="cls-6" d="M212.87 131.51v1.91s5 .18 6.93-1.91Z"/><path class="cls-4" d="M248.51 106.68v-12a7.64 7.64 0 0 0-7.64-7.64h-6.14l2.1.29a5.53 5.53 0 0 1 4.79 5.49v14.38Z"/><path class="cls-26" d="M236.85 120a8.74 8.74 0 0 0 8.74 8.74 8.74 8.74 0 0 0 8.75-8.74v-6.62a8.74 8.74 0 0 0-8.75-8.74 8.74 8.74 0 0 0-8.74 8.74Z"/><path class="cls-4" d="M249.68 106.25a6.76 6.76 0 0 1 1.12.1 8.73 8.73 0 0 1 3.54 7V120a8.69 8.69 0 0 1-1.44 4.8 7.12 7.12 0 0 1-3.22.78 7 7 0 0 1-7-7v-5.3a7 7 0 0 1 7-7.03Z"/><path class="cls-26" d="M247.52 119.74a1.39 1.39 0 0 0 1.39 1.4 1.4 1.4 0 0 0 1.4-1.4v-7.67a1.4 1.4 0 0 0-1.4-1.4 1.4 1.4 0 0 0-1.39 1.4Z"/><path d="M241.41 124.31a28.29 28.29 0 0 1-13.36 9.11" style="stroke:#346fa4;stroke-width:2.97px;stroke-linecap:round;fill:none;stroke-miterlimit:10"/><path d="M222.08 135.53a2.54 2.54 0 0 0 3.22 1.59l3.63-1.24a2.54 2.54 0 0 0 1.59-3.22 2.55 2.55 0 0 0-3.23-1.59l-3.63 1.23a2.55 2.55 0 0 0-1.58 3.23Z" style="fill:#222221"/><path class="cls-29" d="M210.89 135.85v-23.52a16.47 16.47 0 0 1 1.56-7.34c-3.44-2.28-7.78-7.42-5.73-18.45 2.32 1 4.33 1.83 6.15 2.47s-2.36 5.34 7.48 10.61c4.9 3.79 15 8.05 10.34 24.68a48 48 0 0 1-8.76 17.39c-1.59.22-3.1.36-4.46.43a6.28 6.28 0 0 1-6.58-6.27ZM183.83 192.86c0-15.84 19.47-26.08 19.47-26.08 11.22-7.26 22.69-13.22 22.69-13.22v-4.14l7.13-5.92s11.87 10.27 3.73 32.72-13.85 56.51-33.42 57.53c-10.67.56-16.5-20.77-19.6-40.33Z"/><path class="cls-10" d="m258.64 210.99 8.03 60.75h-9.19l1.16-60.75z"/><path class="cls-6" d="M322.58 263.81h33.27v38.29h-33.27z"/><path style="fill:#edeeef;opacity:.61;mix-blend-mode:multiply" d="M322.58 263.81h12.4v38.29h-12.4z"/><path d="M328.78 275h-5.1a9.46 9.46 0 0 0-9.45 9.46v.19a9.46 9.46 0 0 0 9.45 9.46h5.1" style="stroke-width:5.79px;stroke-linecap:round;stroke:#070d04;fill:none;stroke-miterlimit:10"/><path d="M328.78 275h-5.1a9.46 9.46 0 0 0-9.45 9.46v.19a9.46 9.46 0 0 0 9.45 9.46h5.1" style="stroke:#edeeef;stroke-width:5.79px;stroke-linecap:round;opacity:.61;fill:none;stroke-miterlimit:10;mix-blend-mode:multiply"/><path class="cls-5" d="M338.39 258.19a20.94 20.94 0 0 1-1.39-22.28c6.52-12.42 2-21 0-26.6 9.95 14.67 9.7 20.29 6.28 28.6s-5.38 12.52-4.89 20.28Z"/><path class="cls-4" d="M283.82 30.05h-4.7v6.6H246.9V30.6H242v36l-.03 14.2h4.7l2.12-6.12 30.1.68.19 4.89h4.71v-9.37h-29.95l-6.94-9.91 3.83-19.78 14.8-2.19 18.63-1.49-.34-7.46z"/><path class="cls-5" d="M260.26 28.68A26.78 26.78 0 1 0 287 55.46a26.78 26.78 0 0 0-26.74-26.78Zm0 41.81a15 15 0 1 1 15-15 15 15 0 0 1-15 15Z"/><path class="cls-5" d="M255.84 24.3h8.84v6.92h-8.84z"/><path class="cls-5" transform="rotate(-45 279.796 35.625)" d="M276.34 31.2h6.92v8.84h-6.92z"/><path class="cls-5" d="M284.16 50.72h6.92v8.84h-6.92z"/><path class="cls-5" transform="rotate(-45 279.766 74.687)" d="M275.34 71.22h8.84v6.92h-8.84z"/><path class="cls-5" d="M256.41 79.63h8.84v6.92h-8.84z"/><path class="cls-5" transform="rotate(-45 241.29 75.225)" d="M237.83 70.81h6.92v8.84h-6.92z"/><path class="cls-5" d="M230.01 51.29h6.92v8.84h-6.92z"/><path class="cls-5" transform="rotate(-45 241.331 36.167)" d="M236.91 32.71h8.84v6.92h-8.84z"/><path class="cls-33" d="M265 28.68a26.78 26.78 0 1 0 26.78 26.78A26.78 26.78 0 0 0 265 28.68Zm0 41.81a15 15 0 1 1 15-15 15 15 0 0 1-15 15Z"/><path class="cls-33" d="M260.54 24.3h8.84v6.92h-8.84z"/><path class="cls-33" transform="rotate(-45 284.506 35.624)" d="M281.04 31.2h6.92v8.84h-6.92z"/><path class="cls-33" d="M288.86 50.72h6.92v8.84h-6.92z"/><path class="cls-33" transform="rotate(-45 284.464 74.681)" d="M280.05 71.22h8.84v6.92h-8.84z"/><path class="cls-33" d="M261.11 79.63h8.84v6.92h-8.84z"/><path class="cls-33" transform="rotate(-45 245.994 75.236)" d="M242.53 70.81h6.92v8.84h-6.92z"/><path class="cls-33" d="M234.71 51.29h6.92v8.84h-6.92z"/><path class="cls-33" transform="rotate(-45 246.024 36.174)" d="M241.61 32.71h8.84v6.92h-8.84z"/><path class="cls-5" d="M103.13 32.79h-47.3A9.88 9.88 0 0 0 46 42.67v25.44A9.88 9.88 0 0 0 55.83 78h13.34l21 14.41L83.27 78h19.86a9.89 9.89 0 0 0 9.87-9.89V42.67a9.88 9.88 0 0 0-9.87-9.88Z"/><path class="cls-33" d="M98.21 32.79h-47.3A9.88 9.88 0 0 0 41 42.67v25.44A9.88 9.88 0 0 0 50.91 78h13.35l21 14.41L78.35 78h19.86a9.88 9.88 0 0 0 9.88-9.88V42.67a9.88 9.88 0 0 0-9.88-9.88Z"/><path class="cls-34" d="M60.7 56a4.57 4.57 0 1 1-4.57-4.57A4.57 4.57 0 0 1 60.7 56ZM79.13 56a4.57 4.57 0 1 1-4.57-4.57A4.58 4.58 0 0 1 79.13 56Z"/><circle class="cls-34" cx="92.99" cy="56" r="4.57"/><path class="cls-4" d="M90.21 92.4h-4.92l-6.93-14.41h4.91l6.94 14.41z"/><path class="cls-6" d="M342.51 111.43a23.41 23.41 0 0 0-8.83-5h-.14a17.26 17.26 0 0 0-8.91 0h-.15a23.56 23.56 0 0 0-8.83 5c-7.37 7-6.17 19.74 1 26.45 2 1.88 2.9 4.32 3.51 7 .19.8 1.26 9.22.88 9.22h16.06c-.37 0 .7-8.42.88-9.22.62-2.68 1.5-5.12 3.52-7 7.19-6.71 8.38-19.44 1.01-26.45Z"/><path style="stroke:#fefefe;stroke-width:1.62px;stroke-linecap:round;fill:none;stroke-miterlimit:10" d="M329.08 154.1v-19.63l6.56-3.79-12.96-3.42 6.4-2.88v-6.67"/><path class="cls-33" d="M338.71 156.8a1.09 1.09 0 0 1-1.08 1.09H320a1.09 1.09 0 0 1-1.08-1.09 1.09 1.09 0 0 1 1.08-1.08h17.66a1.09 1.09 0 0 1 1.08 1.08ZM338.71 160.05a1.09 1.09 0 0 1-1.08 1.08H320a1.09 1.09 0 0 1-1.08-1.08A1.08 1.08 0 0 1 320 159h17.66a1.08 1.08 0 0 1 1.08 1.08ZM338.71 163.29a1.08 1.08 0 0 1-1.08 1.08H320a1.08 1.08 0 0 1-1.08-1.08 1.08 1.08 0 0 1 1.08-1.08h17.66a1.08 1.08 0 0 1 1.08 1.08ZM328.8 171.94a6.31 6.31 0 0 0 6.3-6.31h-12.6a6.31 6.31 0 0 0 6.3 6.31Z"/><path class="cls-6" d="M147.36 22.86h47.81v31.7h-47.81z"/><path class="cls-6" d="m147.36 22.86 23.9 15.85 23.91-15.85h-47.81z"/><path style="stroke:#fff;stroke-width:1.02px;fill:none;stroke-miterlimit:10" d="m147.36 22.86 23.9 15.85 23.91-15.85"/><path class="cls-6" d="M150.99 6h20.73l-10.37 10.5L150.99 6z"/><path class="cls-6" d="M157.61 0h7.49v7.75h-7.49z"/><path class="cls-33" d="M192.11 10.5h-20.72L181.75 0l10.36 10.5z"/><path class="cls-33" d="M178.01 8.75h7.49v7.75h-7.49z"/></g></g></g></svg>